<svg width="41" height="41" viewBox="0 0 41 41" fill="none" xmlns="http://www.w3.org/2000/svg">
<rect x="1.25559" y="0.497781" width="39.0455" height="39.0455" rx="19.5227" fill="#F46940"/>
<rect x="1.25559" y="0.497781" width="39.0455" height="39.0455" rx="19.5227" stroke="white" stroke-width="0.954545"/>
<path fill-rule="evenodd" clip-rule="evenodd" d="M20.8643 8.60627C20.9115 8.60051 20.9585 8.59885 21.005 8.601C21.0483 8.59952 21.0919 8.60133 21.1357 8.60667C25.7282 9.16669 33.9679 16.7126 32.9066 19.368L32.8925 19.4037C32.8551 19.4987 32.8171 19.5953 32.7495 19.6712C32.4988 19.9526 31.7265 20.1566 30.6 20.3006V27.9094C30.6 28.7329 29.9324 29.4005 29.1089 29.4005H12.8911C12.0676 29.4005 11.4 28.7329 11.4 27.9094V20.3002C10.2735 20.1562 9.50116 19.9522 9.25045 19.6708C9.18287 19.5949 9.14488 19.4983 9.10748 19.4033L9.09338 19.3676C8.03211 16.7122 16.2718 9.16629 20.8643 8.60627Z" fill="white"/>
<path fill-rule="evenodd" clip-rule="evenodd" d="M25 29.4005H17V23.2643C17 22.2349 17.8345 21.4004 18.8639 21.4004H23.1361C24.1655 21.4004 25 22.2349 25 23.2643V29.4005Z" fill="#F46940"/>
</svg>
