<svg width="181" height="159" viewBox="0 0 181 159" fill="none" xmlns="http://www.w3.org/2000/svg">
<path d="M171.683 23.6903C165.259 17.01 155.065 16.1453 147.664 21.2215C147.154 12.5716 140.644 5.17077 131.731 3.85768C123.174 2.60062 115.127 7.35126 111.86 14.9283C109.839 6.60397 102.267 0.505541 93.3382 0.671012C83.022 0.873849 74.8223 9.40098 75.0252 19.7163L75.4976 43.715C75.6978 53.9048 84.0229 62.029 94.171 62.029C94.2965 62.029 94.4219 62.029 94.5474 62.0263C100.433 61.9115 105.627 59.0825 108.969 54.7589C111.651 59.8645 116.651 63.665 122.792 64.5697C123.716 64.7059 124.631 64.7699 125.536 64.7699C125.747 64.7699 125.958 64.7619 126.169 64.7566C126.561 65.261 126.986 65.7494 127.437 66.2191C131.104 70.0357 136.002 71.9546 140.908 71.9546C145.814 71.9546 150.231 70.2225 153.853 66.7396L171.157 50.1043C178.596 42.9543 178.829 31.1258 171.678 23.6876L171.683 23.6903Z" fill="#F6F6F6"/>
<path d="M180.422 97.5183C180.422 139.999 140.304 157.691 90.8184 157.691C41.3322 157.691 1.21484 139.999 1.21484 97.5183C1.21484 55.0375 41.3322 31.3457 90.8184 31.3457C140.304 31.3457 180.422 55.0375 180.422 97.5183Z" fill="#F6F6F6"/>
<mask id="mask0_610_17707" style="mask-type:luminance" maskUnits="userSpaceOnUse" x="75" y="0" width="102" height="57">
<path d="M164.122 56.8727L171.163 50.1043C178.602 42.9543 178.834 31.1258 171.683 23.6876C165.259 17.0073 155.065 16.1426 147.664 21.2189C147.154 12.569 140.644 5.1681 131.731 3.85501C123.174 2.59796 115.127 7.34859 111.86 14.9256C109.839 6.60397 102.267 0.505541 93.3382 0.671012C83.022 0.873849 74.8223 9.40098 75.0252 19.7163L75.2707 32.1587C80.3208 31.6195 85.5149 31.3473 90.8186 31.3473C121.119 31.3473 147.906 40.2321 164.122 56.8727Z" fill="white"/>
</mask>
<g mask="url(#mask0_610_17707)">
<path d="M74.1117 5.42896C81.3478 42.4893 147.311 62.9063 178.158 30.1349L182.752 67.8198L54.2559 50.0075L74.1117 5.42896Z" fill="#E7E7E7"/>
</g>
<path d="M155.515 101.859C155.515 131.863 126.55 146.246 90.8178 146.246C55.0858 146.246 26.1201 131.863 26.1201 101.859C26.1201 71.8554 55.0858 57.0056 90.8178 57.0056C126.55 57.0056 155.515 71.8527 155.515 101.859Z" fill="#B5B5B5"/>
<mask id="mask1_610_17707" style="mask-type:luminance" maskUnits="userSpaceOnUse" x="26" y="57" width="130" height="90">
<path d="M155.515 101.859C155.515 131.863 126.55 146.246 90.8178 146.246C55.0858 146.246 26.1201 131.863 26.1201 101.859C26.1201 71.8554 55.0858 57.0056 90.8178 57.0056C126.55 57.0056 155.515 71.8527 155.515 101.859Z" fill="white"/>
</mask>
<g mask="url(#mask1_610_17707)">
<path d="M46.9772 141.69C59.1241 141.69 68.9711 131.844 68.9711 119.698C68.9711 107.553 59.1241 97.7068 46.9772 97.7068C34.8304 97.7068 24.9834 107.553 24.9834 119.698C24.9834 131.844 34.8304 141.69 46.9772 141.69Z" fill="#8D8D8D"/>
<path d="M134.659 141.69C146.806 141.69 156.653 131.844 156.653 119.698C156.653 107.553 146.806 97.7068 134.659 97.7068C122.512 97.7068 112.665 107.553 112.665 119.698C112.665 131.844 122.512 141.69 134.659 141.69Z" fill="#8D8D8D"/>
</g>
<path d="M125.429 118.096C125.087 118.096 124.746 117.965 124.484 117.706C123.964 117.186 123.964 116.34 124.484 115.82L130.188 110.116C130.709 109.596 131.555 109.596 132.075 110.116C132.596 110.637 132.596 111.483 132.075 112.003L126.371 117.706C126.11 117.968 125.768 118.096 125.426 118.096H125.429Z" fill="#747474"/>
<path d="M132.615 118.096C132.273 118.096 131.931 117.965 131.67 117.707C131.149 117.186 131.149 116.34 131.67 115.82L134.977 112.513C135.497 111.992 136.343 111.992 136.864 112.513C137.384 113.033 137.384 113.879 136.864 114.4L133.557 117.707C133.295 117.968 132.954 118.096 132.612 118.096H132.615Z" fill="#747474"/>
<path d="M135.921 114.79C135.58 114.79 135.238 114.66 134.976 114.401C134.456 113.88 134.456 113.034 134.976 112.514L137.376 110.114C137.896 109.594 138.742 109.594 139.263 110.114C139.783 110.635 139.783 111.481 139.263 112.001L136.863 114.401C136.602 114.662 136.26 114.79 135.919 114.79H135.921Z" fill="#747474"/>
<path d="M139.797 118.096C139.456 118.096 139.114 117.965 138.852 117.706C138.332 117.186 138.332 116.34 138.852 115.82L144.556 110.116C145.077 109.596 145.923 109.596 146.443 110.116C146.964 110.637 146.964 111.483 146.443 112.003L140.739 117.706C140.478 117.968 140.136 118.096 139.794 118.096H139.797Z" fill="#747474"/>
<path d="M36.1331 118.096C35.7914 118.096 35.4498 117.965 35.1882 117.706C34.6677 117.186 34.6677 116.34 35.1882 115.82L40.8922 110.116C41.4127 109.596 42.2588 109.596 42.7793 110.116C43.2998 110.637 43.2998 111.483 42.7793 112.003L37.0753 117.706C36.8137 117.968 36.4721 118.096 36.1304 118.096H36.1331Z" fill="#747474"/>
<path d="M43.3177 118.096C42.976 118.096 42.6344 117.965 42.3728 117.707C41.8523 117.186 41.8523 116.34 42.3728 115.82L45.6799 112.513C46.2004 111.992 47.0465 111.992 47.567 112.513C48.0875 113.033 48.0875 113.879 47.567 114.4L44.2599 117.707C43.9983 117.968 43.6567 118.096 43.315 118.096H43.3177Z" fill="#747474"/>
<path d="M46.6233 114.79C46.2817 114.79 45.94 114.66 45.6784 114.401C45.158 113.88 45.158 113.034 45.6784 112.514L48.078 110.114C48.5985 109.594 49.4446 109.594 49.9651 110.114C50.4856 110.635 50.4856 111.481 49.9651 112.001L47.5655 114.401C47.304 114.662 46.9623 114.79 46.6207 114.79H46.6233Z" fill="#747474"/>
<path d="M50.5003 118.096C50.1586 118.096 49.817 117.965 49.5554 117.706C49.0349 117.186 49.0349 116.34 49.5554 115.82L55.2594 110.116C55.7799 109.596 56.626 109.596 57.1465 110.116C57.667 110.637 57.667 111.483 57.1465 112.003L51.4425 117.706C51.1809 117.968 50.8393 118.096 50.4976 118.096H50.5003Z" fill="#747474"/>
<path opacity="0.4" d="M100.069 78.2876C102.239 80.9824 108.796 85.6977 117.662 83.001" stroke="#434343" stroke-width="3.92099" stroke-linecap="round"/>
<path opacity="0.4" d="M65.1006 83.0005C68.3275 84.2493 76.3636 85.0549 82.6928 78.2871" stroke="#434343" stroke-width="3.92099" stroke-linecap="round"/>
<path d="M67.1084 99.522L64.3615 102.315" stroke="#434343" stroke-width="3.92099" stroke-linecap="round"/>
<path d="M64.7695 97.9019C67.5632 99.9432 75.1169 102.801 82.9823 97.9019" stroke="#434343" stroke-width="3.92099" stroke-linecap="round"/>
<path d="M114.514 99.522L117.261 102.315" stroke="#434343" stroke-width="3.92099" stroke-linecap="round"/>
<path d="M116.853 97.9019C114.059 99.9432 106.505 102.801 98.6398 97.9019" stroke="#434343" stroke-width="3.92099" stroke-linecap="round"/>
<path d="M89.0919 115.963L87.209 111.569L91.6025 109.059L94.7407 111.569L92.2301 115.963H89.0919Z" fill="#747474"/>
<path d="M94.81 112.403C94.794 112.403 94.7806 112.403 94.7646 112.403C93.39 112.39 92.0688 111.723 90.8223 110.415C89.5758 111.723 88.2545 112.39 86.8799 112.403C86.8666 112.403 86.8506 112.403 86.8345 112.403C84.7019 112.403 83.41 110.815 83.2686 110.634C82.8175 110.052 82.9242 109.214 83.5061 108.76C84.0853 108.312 84.9181 108.413 85.3692 108.987C85.3985 109.022 86.0044 109.734 86.8372 109.734C86.8479 109.734 86.8586 109.734 86.8692 109.734C87.6913 109.716 88.6336 109.019 89.5971 107.722C89.848 107.383 90.2457 107.183 90.6675 107.183H90.9664C91.3881 107.183 91.7858 107.383 92.0367 107.722C93.0003 109.019 93.9425 109.716 94.7646 109.734C94.7753 109.734 94.786 109.734 94.7966 109.734C95.6454 109.734 96.2593 108.995 96.2647 108.987C96.7158 108.405 97.5512 108.304 98.1331 108.755C98.715 109.206 98.8164 110.049 98.3653 110.634C98.2238 110.815 96.932 112.403 94.7993 112.403H94.81Z" fill="#434343"/>
<path fill-rule="evenodd" clip-rule="evenodd" d="M87.2082 110.125C88.0055 110.125 88.6518 110.772 88.6518 111.569C88.6518 112.128 88.8861 113.129 89.3875 113.964C89.8918 114.805 90.4456 115.146 90.9741 115.146C91.814 115.146 92.3441 114.702 92.7426 113.905C93.1661 113.058 93.2963 112.037 93.2963 111.569C93.2963 110.772 93.9426 110.125 94.7399 110.125C95.5372 110.125 96.1835 110.772 96.1835 111.569C96.1835 112.356 95.9999 113.846 95.325 115.196C94.6251 116.595 93.2723 118.034 90.9741 118.034C88.992 118.034 87.6629 116.701 86.9118 115.45C86.158 114.193 85.7646 112.683 85.7646 111.569C85.7646 110.772 86.411 110.125 87.2082 110.125Z" fill="#434343"/>
</svg>
