<svg width="45" height="44" viewBox="0 0 45 44" fill="none" xmlns="http://www.w3.org/2000/svg">
<mask id="mask0_498_10709" style="mask-type:alpha" maskUnits="userSpaceOnUse" x="21" y="0" width="22" height="44">
<rect x="21.7783" width="21" height="44" fill="#EEEEEE"/>
</mask>
<g mask="url(#mask0_498_10709)">
<rect x="21.7783" y="1" width="21" height="43" fill="#EEEEEE"/>
<rect x="21.7783" y="41" width="21" height="2.93333" fill="#F46940"/>
<rect x="21.7783" y="35" width="21" height="9" fill="#F46940"/>
</g>
<g clip-path="url(#clip0_498_10709)">
<mask id="mask1_498_10709" style="mask-type:alpha" maskUnits="userSpaceOnUse" x="2" y="1" width="40" height="41">
<path fill-rule="evenodd" clip-rule="evenodd" d="M22.4985 1.19377C22.1469 0.935243 21.6694 0.935428 21.318 1.19422L2.77832 14.8478H41.0688L22.4985 1.19377ZM41.0688 14.8486H2.77832V42H41.0688V14.8486Z" fill="#D9D9D9"/>
</mask>
<g mask="url(#mask1_498_10709)">
<path fill-rule="evenodd" clip-rule="evenodd" d="M21.7783 1.5C21.4294 1.24615 20.5262 2.94296 20.1774 3.19707L1.77832 16.6036H39.7783L21.7783 1.5ZM39.7783 16.6036H1.77832V43.2645H39.7783V16.6036Z" fill="#EEEEEE"/>
<rect x="1.77832" y="35" width="30.9999" height="8" fill="#F46940"/>
</g>
<rect x="10.7783" y="35" width="8" height="6" fill="#614E4E"/>
</g>
<rect opacity="0.1" x="9.77832" y="15" width="10" height="4" fill="#090A0A"/>
<rect opacity="0.1" x="9.77832" y="21" width="10" height="4" fill="#090A0A"/>
<rect opacity="0.1" x="22.7783" y="9" width="9" height="4" fill="#090A0A"/>
<rect opacity="0.1" x="34.7783" y="9" width="4" height="4" fill="#090A0A"/>
<rect opacity="0.1" x="22.7783" y="15" width="9" height="4" fill="#090A0A"/>
<rect opacity="0.1" x="34.7783" y="15" width="4" height="4" fill="#090A0A"/>
<rect opacity="0.1" x="22.7783" y="21" width="9" height="4" fill="#090A0A"/>
<rect opacity="0.1" x="34.7783" y="21" width="4" height="4" fill="#090A0A"/>
<rect opacity="0.1" x="9.77832" y="27" width="10" height="4" fill="#090A0A"/>
<rect x="22.7783" width="20" height="4" fill="#F46940"/>
<path fill-rule="evenodd" clip-rule="evenodd" d="M24.3977 0.826208C25.046 1.72048 24.6726 3.35165 23.7783 4L3.9524 18.1194C3.05813 18.7677 1.80759 18.5683 1.15924 17.6741C0.510896 16.7798 0.710258 15.5293 1.60453 14.8809L21.6045 0.380923C22.4988 -0.267424 23.7493 -0.0680625 24.3977 0.826208Z" fill="#F46940"/>
<rect x="0.77832" y="41" width="44" height="3" fill="#FB8F6F"/>
<rect x="27.7783" y="30" width="6" height="11" fill="#614E4E"/>
<rect x="27.7783" y="28" width="6" height="2" fill="#C0C0C0"/>
<defs>
<clipPath id="clip0_498_10709">
<rect width="20" height="43" fill="white" transform="translate(2.77832 1)"/>
</clipPath>
</defs>
</svg>
