<svg width="45" height="44" viewBox="0 0 45 44" fill="none" xmlns="http://www.w3.org/2000/svg">
<g clip-path="url(#clip0_498_10712)">
<mask id="mask0_498_10712" style="mask-type:alpha" maskUnits="userSpaceOnUse" x="6" y="0" width="33" height="44">
<rect x="6.77832" width="32" height="44" fill="#EEEEEE"/>
</mask>
<g mask="url(#mask0_498_10712)">
<rect x="6.77832" y="1" width="33.6842" height="43.0222" fill="#EEEEEE"/>
<rect x="6.77832" width="32" height="34" fill="#F46940"/>
<rect x="6.77832" y="41" width="32" height="2.93333" fill="#F46940"/>
<rect x="6.77832" y="34" width="32" height="10" fill="#D7D7D7"/>
</g>
</g>
<rect x="12.7783" y="36" width="4" height="8" fill="#614E4E"/>
<rect x="20.7783" y="36" width="4" height="8" fill="#614E4E"/>
<rect x="28.7783" y="36" width="4" height="8" fill="#614E4E"/>
<rect x="12.7783" y="34" width="17" height="2" fill="#C0C0C0"/>
<rect x="20.7783" y="34" width="4" height="2" fill="#C0C0C0"/>
<rect x="28.7783" y="34" width="4" height="2" fill="#C0C0C0"/>
<rect x="28.7783" y="6" width="4" height="4" fill="white"/>
<rect x="28.7783" y="14" width="4" height="4" fill="white"/>
<rect x="28.7783" y="22" width="4" height="4" fill="white"/>
<rect x="12.7783" y="6" width="4" height="4" fill="white"/>
<rect x="20.7783" y="6" width="4" height="4" fill="white"/>
<rect x="12.7783" y="14" width="4" height="4" fill="white"/>
<rect x="20.7783" y="14" width="4" height="4" fill="white"/>
<rect x="12.7783" y="22" width="4" height="4" fill="white"/>
<rect x="20.7783" y="22" width="4" height="4" fill="white"/>
<defs>
<clipPath id="clip0_498_10712">
<path d="M6.77832 0.999999C6.77832 0.447714 7.22604 0 7.77832 0H37.7783C38.3306 0 38.7783 0.447715 38.7783 1V44H6.77832V0.999999Z" fill="white"/>
</clipPath>
</defs>
</svg>
