<svg width="25" height="25" viewBox="0 0 25 25" fill="none" xmlns="http://www.w3.org/2000/svg">
<path d="M12.7207 4.02051C13.273 4.02051 13.7207 4.46822 13.7207 5.02051V11.0205H19.7207C20.273 11.0205 20.7207 11.4682 20.7207 12.0205C20.7207 12.5728 20.273 13.0205 19.7207 13.0205H13.7207V19.0205C13.7207 19.5728 13.273 20.0205 12.7207 20.0205C12.1684 20.0205 11.7207 19.5728 11.7207 19.0205V13.0205H5.7207C5.16842 13.0205 4.7207 12.5728 4.7207 12.0205C4.7207 11.4682 5.16842 11.0205 5.7207 11.0205H11.7207V5.02051C11.7207 4.46822 12.1684 4.02051 12.7207 4.02051Z" fill="#B5B5B5"/>
</svg>
