<svg width="24" height="25" viewBox="0 0 24 25" fill="none" xmlns="http://www.w3.org/2000/svg">
<path d="M5.29289 5.3134C5.68342 4.92288 6.31658 4.92288 6.70711 5.3134L12 10.6063L17.2929 5.3134C17.6834 4.92288 18.3166 4.92288 18.7071 5.3134C19.0976 5.70393 19.0976 6.33709 18.7071 6.72761L13.4142 12.0205L18.7071 17.3134C19.0976 17.7039 19.0976 18.3371 18.7071 18.7276C18.3166 19.1181 17.6834 19.1181 17.2929 18.7276L12 13.4347L6.70711 18.7276C6.31658 19.1181 5.68342 19.1181 5.29289 18.7276C4.90237 18.3371 4.90237 17.7039 5.29289 17.3134L10.5858 12.0205L5.29289 6.72761C4.90237 6.33709 4.90237 5.70393 5.29289 5.3134Z" fill="#676767"/>
</svg>
