<svg width="21" height="21" viewBox="0 0 21 21" fill="none" xmlns="http://www.w3.org/2000/svg">
<g clip-path="url(#clip0_485_5606)">
<rect x="0.77832" y="0.0205078" width="20" height="20" rx="10" fill="#4379F4"/>
<path d="M10.7783 11.8538C10.272 11.8538 9.86163 11.4434 9.86163 10.9371V10.0204C9.86163 9.51418 10.272 9.10377 10.7783 9.10377C11.2846 9.10377 11.695 9.51418 11.695 10.0204V10.9371C11.695 11.4434 11.2846 11.8538 10.7783 11.8538Z" fill="white"/>
<path d="M9.4033 14.1454C9.4033 13.386 10.0189 12.7704 10.7783 12.7704C11.5377 12.7704 12.1533 13.386 12.1533 14.1454C12.1533 14.9048 11.5377 15.5204 10.7783 15.5204C10.0189 15.5204 9.4033 14.9048 9.4033 14.1454Z" fill="white"/>
<path d="M11.1357 6.18086C10.2585 6.13909 9.52283 6.62914 9.39083 7.42114C9.3076 7.92051 8.83531 8.25787 8.33594 8.17464C7.83656 8.09141 7.49921 7.61912 7.58244 7.11974C7.90877 5.16174 9.69397 4.2768 11.2229 4.3496C12.0061 4.3869 12.8111 4.66801 13.4308 5.24716C14.066 5.84069 14.445 6.69089 14.445 7.72877C14.445 8.91247 13.9792 9.79028 13.1774 10.3248C12.4412 10.8156 11.5387 10.9371 10.7783 10.9371C10.272 10.9371 9.86163 10.5267 9.86163 10.0204C9.86163 9.51418 10.272 9.10377 10.7783 9.10377C11.3929 9.10377 11.8654 8.99608 12.1605 8.7994C12.3899 8.64644 12.6116 8.37841 12.6116 7.72877C12.6116 7.16249 12.4177 6.80957 12.1791 6.58669C11.9252 6.34943 11.5557 6.20086 11.1357 6.18086Z" fill="white"/>
</g>
<defs>
<clipPath id="clip0_485_5606">
<rect x="0.77832" y="0.0205078" width="20" height="20" rx="10" fill="white"/>
</clipPath>
</defs>
</svg>
