<svg width="25" height="25" viewBox="0 0 25 25" fill="none" xmlns="http://www.w3.org/2000/svg">
<path d="M10.2783 4.02051C6.96461 4.02051 4.27832 6.7068 4.27832 10.0205C4.27832 13.3342 6.96461 16.0205 10.2783 16.0205C13.592 16.0205 16.2783 13.3342 16.2783 10.0205C16.2783 6.7068 13.592 4.02051 10.2783 4.02051ZM2.27832 10.0205C2.27832 5.60223 5.86004 2.02051 10.2783 2.02051C14.6966 2.02051 18.2783 5.60223 18.2783 10.0205C18.2783 11.8692 17.6512 13.5715 16.5982 14.9262L21.9854 20.3134C22.376 20.7039 22.376 21.3371 21.9854 21.7276C21.5949 22.1181 20.9617 22.1181 20.5712 21.7276L15.184 16.3404C13.8293 17.3934 12.127 18.0205 10.2783 18.0205C5.86004 18.0205 2.27832 14.4388 2.27832 10.0205Z" fill="#B5B5B5"/>
</svg>
