<svg width="21" height="21" viewBox="0 0 21 21" fill="none" xmlns="http://www.w3.org/2000/svg">
<g clip-path="url(#clip0_610_17040)">
<rect x="0.77832" y="0.0205078" width="20" height="20" rx="10" fill="#F46940"/>
<path d="M10.7783 12.0205C10.226 12.0205 9.77832 11.5728 9.77832 11.0205L9.77832 5.02051C9.77832 4.46822 10.226 4.02051 10.7783 4.02051C11.3306 4.02051 11.7783 4.46822 11.7783 5.02051L11.7783 11.0205C11.7783 11.5728 11.3306 12.0205 10.7783 12.0205Z" fill="white"/>
<path d="M9.27832 14.5205C9.27832 13.6921 9.94989 13.0205 10.7783 13.0205C11.6067 13.0205 12.2783 13.6921 12.2783 14.5205C12.2783 15.3489 11.6067 16.0205 10.7783 16.0205C9.94989 16.0205 9.27832 15.3489 9.27832 14.5205Z" fill="white"/>
</g>
<defs>
<clipPath id="clip0_610_17040">
<rect x="0.77832" y="0.0205078" width="20" height="20" rx="10" fill="white"/>
</clipPath>
</defs>
</svg>
