<svg width="25" height="24" viewBox="0 0 25 24" fill="none" xmlns="http://www.w3.org/2000/svg">
<path fill-rule="evenodd" clip-rule="evenodd" d="M12.3643 1.60627C12.4115 1.60051 12.4585 1.59885 12.505 1.601C12.5483 1.59952 12.5919 1.60133 12.6357 1.60667C17.2282 2.16669 25.4679 9.71261 24.4066 12.368L24.3925 12.4037C24.3551 12.4987 24.3171 12.5953 24.2495 12.6712C23.9988 12.9526 23.2265 13.1566 22.1 13.3006V20.9094C22.1 21.7329 21.4324 22.4005 20.6089 22.4005H4.39114C3.5676 22.4005 2.9 21.7329 2.9 20.9094V13.3002C1.77349 13.1562 1.00116 12.9522 0.750452 12.6708C0.682874 12.5949 0.64488 12.4983 0.607484 12.4033L0.593381 12.3676C-0.467886 9.71221 7.77178 2.16629 12.3643 1.60627Z" fill="white"/>
<path fill-rule="evenodd" clip-rule="evenodd" d="M16.5 22.4005H8.5V16.2643C8.5 15.2349 9.33451 14.4004 10.3639 14.4004H14.6361C15.6655 14.4004 16.5 15.2349 16.5 16.2643V22.4005Z" fill="#F46940"/>
</svg>
