<svg width="19" height="18" viewBox="0 0 19 18" fill="none" xmlns="http://www.w3.org/2000/svg">
<path fill-rule="evenodd" clip-rule="evenodd" d="M4.62695 2.25C3.79853 2.25 3.12695 2.92157 3.12695 3.75V14.25C3.12695 15.0784 3.79853 15.75 4.62695 15.75H15.127C15.9554 15.75 16.627 15.0784 16.627 14.25V3.75C16.627 2.92157 15.9554 2.25 15.127 2.25H4.62695ZM13.627 6.375C13.627 6.99632 13.1233 7.5 12.502 7.5C11.8806 7.5 11.377 6.99632 11.377 6.375C11.377 5.75368 11.8806 5.25 12.502 5.25C13.1233 5.25 13.627 5.75368 13.627 6.375ZM15.127 14.25H4.62695V11.6105L7.62698 9.21047L10.9085 11.8357C11.2069 12.0744 11.6371 12.0506 11.9073 11.7803L12.877 10.8107L15.127 13.0606V14.25Z" fill="white"/>
</svg>
