<svg width="362" height="56" viewBox="0 0 362 56" fill="none" xmlns="http://www.w3.org/2000/svg">
<path d="M0.390625 13C0.390625 5.8203 6.21092 0 13.3906 0H348.391C355.57 0 361.391 5.8203 361.391 13V43C361.391 50.1797 355.57 56 348.391 56H13.3906C6.21093 56 0.390625 50.1797 0.390625 43V13Z" fill="#FEE500"/>
<g clip-path="url(#clip0_914_15559)">
<path fill-rule="evenodd" clip-rule="evenodd" d="M117.891 19.6001C112.92 19.6001 108.891 22.7131 108.891 26.5524C108.891 28.9401 110.449 31.0451 112.822 32.2971L111.824 35.9446C111.735 36.2669 112.104 36.5238 112.387 36.337L116.764 33.4483C117.133 33.4839 117.509 33.5047 117.891 33.5047C122.861 33.5047 126.891 30.3919 126.891 26.5524C126.891 22.7131 122.861 19.6001 117.891 19.6001Z" fill="black"/>
</g>
<path d="M151.119 27.856H148.927V35.216H147.279V20.768H148.927V26.48H151.119V27.856ZM145.199 22.224C145.199 26.544 143.935 30.32 138.687 32.96L137.791 31.68C140.351 30.4 141.839 28.944 142.687 27.136L138.111 27.584L137.887 26.16L143.183 25.824C143.375 25.12 143.503 24.368 143.567 23.568H138.623V22.224H145.199ZM165.237 27.856H163.045V35.216H161.397V20.768H163.045V26.48H165.237V27.856ZM159.317 22.224C159.317 26.544 158.053 30.32 152.805 32.96L151.909 31.68C154.469 30.4 155.957 28.944 156.805 27.136L152.229 27.584L152.005 26.16L157.301 25.824C157.493 25.12 157.621 24.368 157.685 23.568H152.741V22.224H159.317ZM179.068 32.112V33.456H165.98V32.112H171.676V29.344C169.036 29.088 167.196 27.664 167.196 25.504C167.196 23.136 169.436 21.632 172.508 21.632C175.564 21.632 177.82 23.136 177.82 25.504C177.82 27.648 175.964 29.104 173.324 29.36V32.112H179.068ZM168.796 25.504C168.796 27.088 170.348 28.064 172.508 28.064C174.652 28.064 176.204 27.088 176.204 25.504C176.204 23.92 174.652 22.944 172.508 22.944C170.348 22.944 168.796 23.92 168.796 25.504ZM193.187 32.176V33.536H180.099V32.176H185.795V29.712H181.683V25.056H190.003V23.12H181.651V21.792H191.635V26.368H183.299V28.384H191.955V29.712H187.443V32.176H193.187ZM209.084 20.768V35.264H207.42V20.768H209.084ZM202.524 24.352C202.524 27.024 203.996 29.664 206.268 30.688L205.308 32C203.644 31.216 202.38 29.664 201.724 27.664C201.068 29.792 199.788 31.472 198.044 32.32L197.068 30.944C199.372 29.92 200.876 27.12 200.876 24.352V21.984H202.524V24.352ZM224.642 25.824H222.594V29.488H220.946V20.768H222.594V24.464H224.642V25.824ZM218.962 28.912C217.346 28.384 216.194 27.312 215.57 25.904C214.93 27.44 213.762 28.608 212.034 29.2L211.17 27.904C213.458 27.136 214.722 25.28 214.722 23.312V23.056H211.65V21.712H219.41V23.056H216.386V23.312C216.386 25.136 217.586 26.928 219.81 27.648L218.962 28.912ZM213.09 30.192H222.594V35.232H220.946V31.52H213.09V30.192ZM238.873 27.968H236.649V35.248H234.985V20.784H236.649V26.592H238.873V27.968ZM230.441 23.008H233.817V24.352H225.353V23.008H228.793V20.992H230.441V23.008ZM229.641 25.376C231.689 25.376 233.225 26.768 233.225 28.752C233.225 30.736 231.689 32.128 229.641 32.128C227.545 32.128 226.057 30.736 226.057 28.752C226.057 26.768 227.545 25.376 229.641 25.376ZM229.641 30.768C230.809 30.768 231.657 29.968 231.657 28.752C231.657 27.536 230.809 26.736 229.641 26.736C228.473 26.736 227.625 27.536 227.625 28.752C227.625 29.968 228.473 30.768 229.641 30.768ZM251.472 20.784V35.232H249.824V20.784H251.472ZM247.216 22.304C247.216 26.608 245.488 30.256 240.528 32.656L239.648 31.344C243.44 29.504 245.248 26.976 245.52 23.648H240.368V22.304H247.216Z" fill="#171717"/>
<defs>
<clipPath id="clip0_914_15559">
<rect width="17.9999" height="18" fill="white" transform="translate(108.891 19)"/>
</clipPath>
</defs>
</svg>
