<svg width="56" height="56" viewBox="0 0 56 56" fill="none" xmlns="http://www.w3.org/2000/svg">
<path d="M27.7211 1.60352C15.5033 1.60352 5.50684 11.7226 5.50684 24.0904C5.50684 38.0991 22.0633 50.0495 25.2705 52.4715C25.6203 52.7357 25.9734 52.9849 26.3842 53.1377C26.8423 53.3081 27.3453 53.4368 27.7211 53.4368C28.0969 53.4368 28.5999 53.3081 29.058 53.1377C29.4688 52.9849 29.8219 52.7357 30.1717 52.4715C33.3789 50.0495 49.9354 38.0991 49.9354 24.0904C49.9354 11.7226 39.9389 1.60352 27.7211 1.60352Z" fill="#F46940"/>
<g clip-path="url(#clip0_2376_77906)">
<path fill-rule="evenodd" clip-rule="evenodd" d="M32.2264 11.1188C32.6875 10.913 33.2053 10.8344 33.7359 10.9178C35.0955 11.1321 36.0887 12.34 36.1665 13.7518C36.3285 13.633 36.4993 13.5342 36.6758 13.4552C37.7301 12.9835 38.9914 13.221 39.8309 14.155C40.9219 15.3691 40.8864 17.2998 39.7515 18.4668L39.6693 18.5514C41.216 20.3588 42.1191 22.6704 42.1191 25.4414C42.1191 32.8349 35.6901 35.9141 27.7597 35.9141C19.8294 35.9141 13.4004 32.8349 13.4004 25.4414C13.4004 18.8969 18.4378 14.9146 25.0948 14.0864L25.0842 13.5066C25.0532 11.8229 26.3042 10.4311 27.878 10.398C28.0683 10.3942 28.2546 10.4104 28.4351 10.4448C29.5465 10.656 30.4386 11.5556 30.7041 12.7239C30.9923 12.0096 31.5238 11.4493 32.1731 11.1432C32.1908 11.1349 32.2085 11.1267 32.2264 11.1188Z" fill="white"/>
<path d="M32.1471 23.1895C32.1471 24.18 31.6958 24.9834 30.7721 24.9834C29.8485 24.9834 29.3975 24.1803 29.3972 23.1895C29.3972 22.1989 29.8485 21.3956 30.7721 21.3956C31.6958 21.3956 32.1468 22.1986 32.1471 23.1895Z" fill="#F46940"/>
<path d="M26.0446 23.1895C26.0446 24.18 25.5932 24.9834 24.6696 24.9834C23.746 24.9834 23.295 24.1803 23.2946 23.1895C23.2946 22.1989 23.746 21.3956 24.6696 21.3956C25.5932 21.3956 26.0443 22.1986 26.0446 23.1895Z" fill="#F46940"/>
<path d="M29.6492 28.9727C29.6415 28.9727 29.635 28.9727 29.6273 28.9727C28.9637 28.9662 28.3258 28.6441 27.724 28.0127C27.1222 28.6441 26.4844 28.9662 25.8207 28.9727C25.8143 28.9727 25.8065 28.9727 25.7988 28.9727C24.7692 28.9727 24.1455 28.206 24.0772 28.1183C23.8594 27.8374 23.911 27.4328 24.1919 27.2137C24.4715 26.9972 24.8736 27.0462 25.0914 27.3233C25.1055 27.34 25.3981 27.6841 25.8001 27.6841C25.8053 27.6841 25.8104 27.6841 25.8156 27.6841C26.2125 27.675 26.6673 27.3387 27.1325 26.7124C27.2537 26.5488 27.4457 26.4521 27.6493 26.4521H27.7936C27.9972 26.4521 28.1892 26.5488 28.3103 26.7124C28.7755 27.3387 29.2304 27.675 29.6273 27.6841C29.6325 27.6841 29.6376 27.6841 29.6428 27.6841C30.0525 27.6841 30.3489 27.3271 30.3515 27.3233C30.5693 27.0423 30.9726 26.9934 31.2535 27.2111C31.5345 27.4289 31.5834 27.8361 31.3656 28.1183C31.2974 28.206 30.6737 28.9727 29.6441 28.9727H29.6492Z" fill="#F46940"/>
</g>
<defs>
<clipPath id="clip0_2376_77906">
<rect width="29.619" height="29.619" fill="white" transform="translate(12.9121 9.82617)"/>
</clipPath>
</defs>
</svg>
