<svg width="19" height="23" viewBox="0 0 19 23" fill="none" xmlns="http://www.w3.org/2000/svg">
<path fill-rule="evenodd" clip-rule="evenodd" d="M9.32354 19.9444H2.60134H1.99023V19.3333V14.8484C1.99023 12.1462 2.6908 9.0176 5.32608 7.56487C6.43844 6.95167 7.79046 6.5 9.32354 6.5C10.8566 6.5 12.2086 6.95167 13.321 7.56487C15.9563 9.0176 16.6568 12.1462 16.6568 14.8484V19.3333V19.9444H16.0457H9.32354Z" fill="#F46940"/>
<rect x="0.767578" y="19.333" width="17.111" height="3.66667" fill="#D9D9D9"/>
<path fill-rule="evenodd" clip-rule="evenodd" d="M9.32227 0C9.87455 0 10.3223 0.447715 10.3223 1V4.66667C10.3223 5.21895 9.87455 5.66667 9.32227 5.66667C8.76998 5.66667 8.32227 5.21895 8.32227 4.66667V1C8.32227 0.447715 8.76998 0 9.32227 0Z" fill="#FEA509"/>
<path fill-rule="evenodd" clip-rule="evenodd" d="M17.5108 2.73738C17.9013 3.12791 17.9013 3.76107 17.5108 4.1516L14.9181 6.74432C14.5276 7.13485 13.8944 7.13485 13.5039 6.74432C13.1134 6.3538 13.1134 5.72063 13.5039 5.33011L16.0966 2.73738C16.4871 2.34686 17.1203 2.34686 17.5108 2.73738Z" fill="#FEA509"/>
<path fill-rule="evenodd" clip-rule="evenodd" d="M1.28313 2.73738C0.892606 3.12791 0.892606 3.76107 1.28313 4.1516L3.87584 6.74432C4.26637 7.13485 4.89953 7.13485 5.29005 6.74432C5.68058 6.3538 5.68058 5.72063 5.29005 5.33011L2.69734 2.73738C2.30682 2.34686 1.67365 2.34686 1.28313 2.73738Z" fill="#FEA509"/>
<path d="M11.1582 8.94434C12.1767 9.35174 14.2137 10.8999 14.2137 13.8332" stroke="white" stroke-linecap="round"/>
</svg>
