<svg width="41" height="41" viewBox="0 0 41 41" fill="none" xmlns="http://www.w3.org/2000/svg">
<path d="M20.5427 1.66748C11.5345 1.66748 4.16406 9.12835 4.16406 18.2472C4.16406 28.5759 16.3712 37.387 18.7359 39.1727C18.9938 39.3675 19.2541 39.5512 19.557 39.6639C19.8948 39.7895 20.2656 39.8844 20.5427 39.8844C20.8198 39.8844 21.1907 39.7895 21.5284 39.6639C21.8313 39.5512 22.0917 39.3675 22.3496 39.1727C24.7143 37.387 36.9214 28.5759 36.9214 18.2472C36.9214 9.12835 29.551 1.66748 20.5427 1.66748Z" fill="#F46940"/>
<g clip-path="url(#clip0_985_15182)">
<path fill-rule="evenodd" clip-rule="evenodd" d="M25.3211 8.62164C26.1438 8.90629 26.7193 9.70708 26.7702 10.6248C27.3158 10.2249 27.996 10.1318 28.6034 10.3414C28.9232 10.4515 29.2228 10.6455 29.4721 10.9228C30.2764 11.8179 30.2503 13.2415 29.4135 14.1019L29.3529 14.1642C30.4931 15.4968 31.1588 17.201 31.1588 19.2439C31.1588 24.6951 26.4187 26.9654 20.5716 26.9654C14.7245 26.9654 9.98438 24.6951 9.98438 19.2439C9.98438 14.4185 13.6985 11.4824 18.6068 10.8717L18.5989 10.4443C18.5761 9.20286 19.4984 8.17666 20.6588 8.15225C21.0971 8.14356 21.5063 8.27846 21.8473 8.51654C21.8542 8.52138 21.8612 8.52627 21.868 8.5312C22.2979 8.83878 22.6162 9.31164 22.7426 9.86686C23.1104 8.95569 24.0152 8.38454 24.9774 8.53575C25.096 8.55445 25.2108 8.5834 25.3211 8.62164Z" fill="white"/>
<path d="M23.8065 17.5835C23.8065 18.3138 23.4737 18.9061 22.7927 18.9061C22.1117 18.9061 21.7792 18.3141 21.7789 17.5835C21.7789 16.8532 22.1117 16.2608 22.7927 16.2608C23.4737 16.2608 23.8062 16.8529 23.8065 17.5835Z" fill="#F46940"/>
<path d="M19.3045 17.5835C19.3045 18.3138 18.9717 18.9061 18.2907 18.9061C17.6097 18.9061 17.2772 18.3141 17.277 17.5835C17.277 16.8532 17.6097 16.2608 18.2907 16.2608C18.9717 16.2608 19.3043 16.8529 19.3045 17.5835Z" fill="#F46940"/>
<path d="M21.9635 21.8477C21.9578 21.8477 21.9531 21.8477 21.9474 21.8477C21.4581 21.8429 20.9878 21.6054 20.5441 21.1398C20.1004 21.6054 19.6301 21.8429 19.1408 21.8477C19.136 21.8477 19.1303 21.8477 19.1246 21.8477C18.3655 21.8477 17.9056 21.2823 17.8553 21.2177C17.6947 21.0106 17.7327 20.7123 17.9398 20.5508C18.146 20.3912 18.4424 20.4273 18.603 20.6315C18.6135 20.6439 18.8291 20.8976 19.1256 20.8976C19.1294 20.8976 19.1332 20.8976 19.137 20.8976C19.4296 20.8909 19.765 20.6429 20.108 20.1812C20.1973 20.0605 20.3389 19.9893 20.489 19.9893H20.5954C20.7455 19.9893 20.8871 20.0605 20.9764 20.1812C21.3194 20.6429 21.6547 20.8909 21.9474 20.8976C21.9512 20.8976 21.955 20.8976 21.9588 20.8976C22.2609 20.8976 22.4794 20.6344 22.4813 20.6315C22.6419 20.4244 22.9393 20.3883 23.1464 20.5489C23.3535 20.7094 23.3896 21.0097 23.2291 21.2177C23.1787 21.2823 22.7189 21.8477 21.9597 21.8477H21.9635Z" fill="#F46940"/>
</g>
<defs>
<clipPath id="clip0_985_15182">
<rect width="21.8382" height="21.8382" fill="white" transform="translate(9.625 7.73047)"/>
</clipPath>
</defs>
</svg>
