<svg width="61" height="82" viewBox="0 0 61 82" fill="none" xmlns="http://www.w3.org/2000/svg">
<path fill-rule="evenodd" clip-rule="evenodd" d="M30.7212 0.0205078L0.721191 10.9631V47.8002C3.86068 54.3097 14.256 69.44 30.7212 70.0205C47.1864 69.44 57.5817 54.3097 60.7212 47.8002V10.9631L30.7212 0.0205078Z" fill="#F46940"/>
<path d="M54.3687 38.2528C54.3687 49.4147 43.8289 54.0633 30.8277 54.0633C17.8264 54.0633 7.28662 49.4147 7.28662 38.2528C7.28662 27.091 17.8264 20.866 30.8277 20.866C43.8289 20.866 54.3687 27.091 54.3687 38.2528Z" fill="white"/>
<path d="M47.8254 39.3932C47.8254 47.2766 40.2154 51.0557 30.8277 51.0557C21.4401 51.0557 13.8301 47.2766 13.8301 39.3932C13.8301 31.5097 21.4401 27.6079 30.8277 27.6079C40.2154 27.6079 47.8254 31.509 47.8254 39.3932Z" fill="#946555"/>
<mask id="mask0_597_20245" style="mask-type:luminance" maskUnits="userSpaceOnUse" x="13" y="27" width="35" height="25">
<path d="M47.8254 39.3932C47.8254 47.2766 40.2154 51.0557 30.8277 51.0557C21.4401 51.0557 13.8301 47.2766 13.8301 39.3932C13.8301 31.5097 21.4401 27.6079 30.8277 27.6079C40.2154 27.6079 47.8254 31.509 47.8254 39.3932Z" fill="white"/>
</mask>
<g mask="url(#mask0_597_20245)">
<path d="M19.3096 49.8589C22.5008 49.8589 25.0879 47.2718 25.0879 44.0806C25.0879 40.8893 22.5008 38.3022 19.3096 38.3022C16.1183 38.3022 13.5312 40.8893 13.5312 44.0806C13.5312 47.2718 16.1183 49.8589 19.3096 49.8589Z" fill="#B7654F"/>
<path d="M42.3457 49.8589C45.537 49.8589 48.124 47.2718 48.124 44.0806C48.124 40.8893 45.537 38.3022 42.3457 38.3022C39.1544 38.3022 36.5674 40.8893 36.5674 44.0806C36.5674 47.2718 39.1544 49.8589 42.3457 49.8589Z" fill="#B7654F"/>
</g>
<path d="M26.5052 38.3199C25.4772 39.348 24.175 39.7133 23.2164 38.7547C22.2577 37.7961 22.6231 36.4946 23.6511 35.4658C24.6792 34.4378 25.9814 34.0724 26.94 35.031C27.8986 35.9897 27.5333 37.2912 26.5052 38.3199Z" fill="#3B090A"/>
<path d="M27.0248 41.18C25.9967 42.2081 24.6945 42.5734 23.7359 41.6148C22.7773 40.6562 23.1426 39.3547 24.1707 38.3259C25.1987 37.2979 26.5009 36.9325 27.4595 37.8912C28.4182 38.8498 28.0528 40.1513 27.0248 41.18Z" fill="#3B090A"/>
<path d="M25.4436 37.1844C24.9611 37.6668 24.3917 37.8807 24.0284 37.5175C23.6652 37.1542 23.8784 36.5848 24.3615 36.1023C24.844 35.6199 25.4134 35.406 25.7767 35.7692C26.1399 36.1325 25.9267 36.7019 25.4436 37.1844Z" fill="white"/>
<path opacity="0.2" d="M26.0267 40.5328C25.5891 40.9704 25.0562 41.1478 24.6929 40.7846C24.3297 40.4213 24.5071 39.8884 24.9447 39.4508C25.3823 39.0132 25.9152 38.8358 26.2785 39.199C26.6417 39.5623 26.4643 40.0952 26.0267 40.5328Z" fill="#FFC160"/>
<path d="M26.2335 38.2504C26.026 38.458 25.7679 38.5358 25.5835 38.3514C25.399 38.167 25.4769 37.9082 25.6844 37.7013C25.892 37.4945 26.1501 37.4159 26.3345 37.6004C26.5189 37.7848 26.4411 38.0436 26.2335 38.2504Z" fill="#B7654F"/>
<path d="M37.4837 38.3196C36.4557 39.3477 35.1535 39.713 34.1949 38.7544C33.2363 37.7958 33.6016 36.4943 34.6296 35.4655C35.6577 34.4368 36.9599 34.0722 37.9185 35.0308C38.8771 35.9894 38.5118 37.2909 37.4837 38.3196Z" fill="#3B090A"/>
<path d="M38.0043 41.18C36.9762 42.2081 35.674 42.5734 34.7154 41.6148C33.7568 40.6562 34.1221 39.3547 35.1502 38.3259C36.1782 37.2979 37.4804 36.9325 38.439 37.8912C39.3976 38.8498 39.0323 40.1513 38.0043 41.18Z" fill="#3B090A"/>
<path d="M36.423 37.1844C35.9406 37.6668 35.3712 37.8807 35.0079 37.5175C34.6447 37.1542 34.8579 36.5848 35.341 36.1023C35.8235 35.6199 36.3929 35.406 36.7561 35.7692C37.1194 36.1325 36.9062 36.7019 36.423 37.1844Z" fill="white"/>
<path opacity="0.2" d="M37.0062 40.5328C36.5686 40.9704 36.0357 41.1478 35.6724 40.7846C35.3092 40.4213 35.4866 39.8884 35.9242 39.4508C36.3617 39.0132 36.8947 38.8358 37.2579 39.199C37.6212 39.5623 37.4438 40.0952 37.0062 40.5328Z" fill="#FFC160"/>
<path d="M37.213 38.2501C37.0054 38.4577 36.7474 38.5355 36.563 38.3511C36.3785 38.1667 36.4564 37.9079 36.6639 37.701C36.8715 37.4935 37.1296 37.4156 37.314 37.6001C37.4984 37.7845 37.4206 38.0433 37.213 38.2501Z" fill="#B7654F"/>
<path d="M31.8746 41.6661C31.8704 41.6661 31.8669 41.6661 31.8627 41.6661C31.5016 41.6626 31.1544 41.4873 30.827 41.1436C30.4995 41.4873 30.1524 41.6626 29.7912 41.6661C29.7877 41.6661 29.7835 41.6661 29.7793 41.6661C29.219 41.6661 28.8796 41.2488 28.8424 41.2012C28.7239 41.0483 28.752 40.8281 28.9048 40.7089C29.057 40.5911 29.2758 40.6177 29.3943 40.7685C29.402 40.7776 29.5612 40.9648 29.78 40.9648C29.7828 40.9648 29.7856 40.9648 29.7884 40.9648C30.0044 40.9599 30.2519 40.7769 30.5051 40.4361C30.571 40.347 30.6755 40.2944 30.7863 40.2944H30.8648C30.9756 40.2944 31.0801 40.347 31.146 40.4361C31.3992 40.7769 31.6467 40.9599 31.8627 40.9648C31.8655 40.9648 31.8683 40.9648 31.8711 40.9648C32.0941 40.9648 32.2554 40.7706 32.2568 40.7685C32.3753 40.6156 32.5948 40.589 32.7477 40.7075C32.9006 40.826 32.9272 41.0476 32.8087 41.2012C32.7715 41.2488 32.4321 41.6661 31.8718 41.6661H31.8746Z" fill="#3B090A"/>
<path d="M39.9206 43.6593C39.8309 43.6593 39.7411 43.6249 39.6724 43.5569C39.5356 43.4201 39.5356 43.1978 39.6724 43.0611L41.171 41.5625C41.3077 41.4258 41.53 41.4258 41.6667 41.5625C41.8035 41.6993 41.8035 41.9216 41.6667 42.0583L40.1682 43.5569C40.0994 43.6256 40.0097 43.6593 39.9199 43.6593H39.9206Z" fill="#AF4F3C"/>
<path d="M41.8088 43.6594C41.7191 43.6594 41.6293 43.6251 41.5606 43.557C41.4238 43.4203 41.4238 43.198 41.5606 43.0613L42.4294 42.1924C42.5662 42.0557 42.7885 42.0557 42.9252 42.1924C43.0619 42.3291 43.0619 42.5514 42.9252 42.6882L42.0564 43.557C41.9876 43.6258 41.8979 43.6594 41.8081 43.6594H41.8088Z" fill="#AF4F3C"/>
<path d="M42.6775 42.7906C42.5877 42.7906 42.4979 42.7563 42.4292 42.6882C42.2925 42.5515 42.2925 42.3292 42.4292 42.1925L43.0596 41.562C43.1964 41.4253 43.4187 41.4253 43.5554 41.562C43.6922 41.6988 43.6922 41.9211 43.5554 42.0578L42.925 42.6882C42.8563 42.757 42.7665 42.7906 42.6768 42.7906H42.6775Z" fill="#AF4F3C"/>
<path d="M43.6955 43.6593C43.6058 43.6593 43.516 43.6249 43.4473 43.5569C43.3105 43.4201 43.3105 43.1978 43.4473 43.0611L44.9459 41.5625C45.0826 41.4258 45.3049 41.4258 45.4416 41.5625C45.5784 41.6993 45.5784 41.9216 45.4416 42.0583L43.9431 43.5569C43.8743 43.6256 43.7846 43.6593 43.6948 43.6593H43.6955Z" fill="#AF4F3C"/>
<path d="M16.4607 43.6595C16.3709 43.6595 16.2811 43.6251 16.2124 43.5571C16.0757 43.4204 16.0757 43.1981 16.2124 43.0613L17.711 41.5628C17.8477 41.426 18.07 41.426 18.2068 41.5628C18.3435 41.6995 18.3435 41.9218 18.2068 42.0585L16.7082 43.5571C16.6395 43.6258 16.5497 43.6595 16.46 43.6595H16.4607Z" fill="#AF4F3C"/>
<path d="M18.3484 43.6597C18.2586 43.6597 18.1688 43.6253 18.1001 43.5573C17.9634 43.4205 17.9634 43.1982 18.1001 43.0615L18.969 42.1926C19.1057 42.0559 19.328 42.0559 19.4648 42.1926C19.6015 42.3294 19.6015 42.5517 19.4648 42.6884L18.5959 43.5573C18.5272 43.626 18.4374 43.6597 18.3477 43.6597H18.3484Z" fill="#AF4F3C"/>
<path d="M19.2165 42.7909C19.1268 42.7909 19.037 42.7565 18.9683 42.6885C18.8315 42.5517 18.8315 42.3294 18.9683 42.1927L19.5987 41.5623C19.7355 41.4255 19.9577 41.4255 20.0945 41.5623C20.2312 41.699 20.2312 41.9213 20.0945 42.0581L19.4641 42.6885C19.3953 42.7572 19.3056 42.7909 19.2158 42.7909H19.2165Z" fill="#AF4F3C"/>
<path d="M20.2351 43.6595C20.1453 43.6595 20.0556 43.6251 19.9868 43.5571C19.8501 43.4204 19.8501 43.1981 19.9868 43.0613L21.4854 41.5628C21.6222 41.426 21.8445 41.426 21.9812 41.5628C22.1179 41.6995 22.1179 41.9218 21.9812 42.0585L20.4826 43.5571C20.4139 43.6258 20.3241 43.6595 20.2344 43.6595H20.2351Z" fill="#AF4F3C"/>
<mask id="mask1_597_20245" style="mask-type:luminance" maskUnits="userSpaceOnUse" x="26" y="12" width="28" height="16">
<path d="M50.086 27.573L51.9359 25.7946C53.8903 23.916 53.9513 20.808 52.0727 18.8536C50.3848 17.0984 47.7067 16.8712 45.7621 18.205C45.6282 15.9322 43.9178 13.9877 41.5763 13.6426C39.3281 13.3123 37.2138 14.5606 36.3555 16.5514C35.8247 14.3649 33.8352 12.7626 31.4895 12.806C28.7792 12.8593 26.6249 15.0998 26.6782 17.8102L26.7427 21.0794C28.0695 20.9378 29.4341 20.8662 30.8275 20.8662C38.7881 20.8662 45.8259 23.2007 50.086 27.573Z" fill="white"/>
</mask>
<g mask="url(#mask1_597_20245)">
<path d="M26.4383 14.0562C28.3394 23.7937 45.6695 29.1583 53.7738 20.5476L54.9807 30.4493L21.2217 25.7692L26.4383 14.0562Z" fill="#FFEDDC"/>
</g>
</svg>
