<svg width="21" height="21" viewBox="0 0 21 21" fill="none" xmlns="http://www.w3.org/2000/svg">
<g clip-path="url(#clip0_610_17036)">
<rect x="0.447266" y="0.520508" width="20" height="20" rx="10" fill="#F46940"/>
<path d="M10.4473 12.5205C9.89498 12.5205 9.44727 12.0728 9.44727 11.5205L9.44727 5.52051C9.44727 4.96822 9.89498 4.52051 10.4473 4.52051C10.9996 4.52051 11.4473 4.96822 11.4473 5.52051L11.4473 11.5205C11.4473 12.0728 10.9996 12.5205 10.4473 12.5205Z" fill="white"/>
<path d="M8.94727 15.0205C8.94727 14.1921 9.61884 13.5205 10.4473 13.5205C11.2757 13.5205 11.9473 14.1921 11.9473 15.0205C11.9473 15.8489 11.2757 16.5205 10.4473 16.5205C9.61884 16.5205 8.94727 15.8489 8.94727 15.0205Z" fill="white"/>
</g>
<defs>
<clipPath id="clip0_610_17036">
<rect x="0.447266" y="0.520508" width="20" height="20" rx="10" fill="white"/>
</clipPath>
</defs>
</svg>
