<svg width="185" height="143" viewBox="0 0 185 143" fill="none" xmlns="http://www.w3.org/2000/svg">
<path d="M106.855 91.1626C106.855 91.1626 89.0898 83.2878 68.6708 51.7847L53.9715 79.4152L76.5265 97.137L107.903 100.86L107.109 87.356L106.855 91.1626Z" fill="#946555"/>
<path d="M106.855 91.1626C106.855 91.1626 89.0898 83.2878 68.6708 51.7847L53.9715 79.4152L76.5265 97.137L107.903 100.86L107.109 87.356L106.855 91.1626Z" fill="#946555"/>
<mask id="mask0_479_5004" style="mask-type:alpha" maskUnits="userSpaceOnUse" x="53" y="51" width="55" height="50">
<path d="M106.855 91.1626C106.855 91.1626 89.0898 83.2878 68.6708 51.7847L53.9715 79.4152L76.5265 97.137L107.903 100.86L107.109 87.356L106.855 91.1626Z" fill="#946555"/>
</mask>
<g mask="url(#mask0_479_5004)">
<path opacity="0.1" d="M53.1527 78.5828C60.6815 77.7902 75.0021 68.4288 77.1071 63.8472L87.2611 65.2095L97.962 81.0406C90.8261 94.5336 45.6239 79.3754 53.1527 78.5828Z" fill="#3B090A"/>
</g>
<path d="M155.091 85.6826C155.091 85.6826 154.834 86.0763 154.377 86.7908L154.113 80.9083L124.08 83.3845L95.1836 74.8323L93.7255 80.5373C93.4239 79.7445 93.2529 79.3067 93.2529 79.3067C93.2529 79.3067 71.9286 121.118 95.2453 132.358C101.987 135.609 104.664 132.543 105.062 126.542L118.343 139.025L133.892 129.514C133.057 135.47 135.053 139.015 142.315 137.211C167.435 130.965 155.091 85.6826 155.091 85.6826Z" fill="white"/>
<path d="M179.839 19.9489C176.647 15.686 170.896 14.4737 166.317 16.8464C166.637 11.8776 163.447 7.19772 158.457 5.82011C153.666 4.49951 148.742 6.64094 146.345 10.7315C145.78 5.84173 141.892 1.82968 136.789 1.29414C130.892 0.68199 125.615 4.96634 125.003 10.8633L123.579 24.5826C122.974 30.4078 127.148 35.6281 132.935 36.3441C133.007 36.3529 133.078 36.3618 133.15 36.3691C136.514 36.7189 139.675 35.472 141.886 33.2421C143.055 36.343 145.638 38.863 149.076 39.8123C149.593 39.9551 150.111 40.0562 150.627 40.1201C150.747 40.1349 150.868 40.1452 150.988 40.1571C151.177 40.4724 151.384 40.7809 151.608 41.0806C153.43 43.5158 156.088 44.9557 158.885 45.3018C161.683 45.6479 164.324 44.9718 166.635 43.2411L177.676 34.9752C182.422 31.4225 183.389 24.6933 179.837 19.947L179.839 19.9489Z" fill="white"/>
<path d="M179.613 62.6688C176.616 86.8947 152.492 94.1538 124.273 90.6625C96.0552 87.1712 74.4276 74.2515 77.425 50.0255C80.4223 25.7995 104.97 15.1189 133.188 18.6102C161.406 22.1015 182.611 38.4428 179.613 62.6688Z" fill="white"/>
<path d="M165.105 63.387C162.988 80.4975 145.456 86.6561 125.081 84.1352C104.706 81.6142 89.2036 71.3685 91.3206 54.258C93.4376 37.1475 111.002 30.7225 131.378 33.2434C151.753 35.7644 167.222 46.2749 165.105 63.387Z" fill="#946555"/>
<mask id="mask1_479_5004" style="mask-type:luminance" maskUnits="userSpaceOnUse" x="91" y="32" width="75" height="53">
<path d="M165.105 63.387C162.988 80.4975 145.456 86.6561 125.081 84.1352C104.706 81.6142 89.2036 71.3685 91.3206 54.258C93.4376 37.1475 111.002 30.7225 131.378 33.2434C151.753 35.7644 167.222 46.2749 165.105 63.387Z" fill="white"/>
</mask>
<g mask="url(#mask1_479_5004)">
<path d="M100.403 78.4441C107.33 79.3011 113.64 74.3808 114.496 67.4544C115.353 60.5279 110.433 54.2182 103.507 53.3613C96.5803 52.5043 90.2706 57.4246 89.4136 64.351C88.5567 71.2774 93.4769 77.5871 100.403 78.4441Z" fill="#B7654F"/>
<path d="M150.402 84.6304C157.328 85.4874 163.638 80.5671 164.495 73.6407C165.352 66.7142 160.431 60.4045 153.505 59.5475C146.579 58.6906 140.269 63.6108 139.412 70.5373C138.555 77.4637 143.475 83.7734 150.402 84.6304Z" fill="#B7654F"/>
</g>
<path d="M119.12 55.3318C116.612 57.287 113.688 57.7303 111.865 55.3923C110.041 53.0542 111.184 50.3275 113.691 48.3707C116.199 46.4155 119.123 45.9723 120.946 48.3103C122.77 50.6483 121.627 53.3751 119.12 55.3318Z" fill="#3B090A"/>
<path d="M119.479 61.6794C116.972 63.6347 114.047 64.0779 112.224 61.7399C110.401 59.4019 111.544 56.6751 114.051 54.7184C116.558 52.7632 119.483 52.3199 121.306 54.6579C123.129 56.996 121.987 59.7227 119.479 61.6794Z" fill="#3B090A"/>
<path d="M117.12 52.582C115.943 53.4996 114.65 53.8109 113.959 52.925C113.268 52.039 113.884 50.8604 115.062 49.943C116.239 49.0254 117.532 48.7141 118.223 49.6001C118.914 50.486 118.298 51.6646 117.12 52.582Z" fill="white"/>
<path opacity="0.2" d="M117.487 60.0064C116.42 60.8386 115.216 61.0806 114.525 60.1946C113.834 59.3087 114.362 58.1996 115.429 57.3674C116.497 56.5351 117.701 56.2932 118.392 57.1791C119.083 58.0651 118.554 59.1742 117.487 60.0064Z" fill="#FFC160"/>
<path d="M118.549 55.1082C118.043 55.5029 117.462 55.6026 117.111 55.1528C116.76 54.703 116.999 54.1622 117.505 53.769C118.011 53.3757 118.592 53.2746 118.943 53.7244C119.294 54.1742 119.055 54.7149 118.549 55.1082Z" fill="#B7654F"/>
<path d="M142.948 58.2797C140.441 60.235 137.516 60.6782 135.693 58.3402C133.87 56.0022 135.013 53.2754 137.52 51.3187C140.028 49.362 142.952 48.9202 144.775 51.2582C146.598 53.5962 145.456 56.323 142.948 58.2797Z" fill="#3B090A"/>
<path d="M143.31 64.6272C140.802 66.5824 137.878 67.0257 136.054 64.6877C134.231 62.3496 135.374 59.6229 137.881 57.6662C140.389 55.7109 143.313 55.2677 145.136 57.6057C146.96 59.9437 145.817 62.6705 143.31 64.6272Z" fill="#3B090A"/>
<path d="M140.95 55.5305C139.774 56.4481 138.48 56.7594 137.789 55.8735C137.099 54.9875 137.714 53.8089 138.892 52.8915C140.069 51.9739 141.362 51.6626 142.053 52.5485C142.744 53.4345 142.129 54.6131 140.95 55.5305Z" fill="white"/>
<path opacity="0.2" d="M141.317 62.9546C140.25 63.7869 139.046 64.0288 138.355 63.1429C137.664 62.2569 138.192 61.1478 139.26 60.3156C140.327 59.4834 141.531 59.2414 142.222 60.1274C142.913 61.0133 142.385 62.1224 141.317 62.9546Z" fill="#FFC160"/>
<path d="M142.379 58.0561C141.873 58.4509 141.292 58.5505 140.941 58.1007C140.591 57.6509 140.829 57.1102 141.335 56.7169C141.841 56.3221 142.422 56.2225 142.773 56.6723C143.124 57.1221 142.885 57.6628 142.379 58.0561Z" fill="#B7654F"/>
<path d="M129.875 64.0364C129.866 64.0352 129.858 64.0343 129.849 64.0332C129.066 63.9286 128.36 63.4549 127.741 62.6211C126.938 63.279 126.138 63.5663 125.353 63.4769C125.345 63.476 125.336 63.4748 125.327 63.4737C124.111 63.3232 123.486 62.3265 123.419 62.213C123.202 61.8494 123.322 61.379 123.686 61.1613C124.048 60.9465 124.516 61.0631 124.733 61.4221C124.747 61.444 125.042 61.8931 125.517 61.9519C125.523 61.9526 125.529 61.9534 125.535 61.9541C126.005 62.0015 126.592 61.6707 127.233 60.999C127.4 60.8234 127.641 60.7373 127.881 60.767L128.052 60.7881C128.292 60.8179 128.505 60.9601 128.624 61.1711C129.082 61.9788 129.57 62.4425 130.037 62.5112C130.043 62.5119 130.05 62.5127 130.056 62.5134C130.54 62.5733 130.942 62.195 130.945 62.1908C131.244 61.8908 131.727 61.892 132.027 62.1902C132.327 62.4885 132.326 62.9766 132.027 63.2781C131.934 63.3716 131.085 64.1861 129.869 64.0356L129.875 64.0364Z" fill="#3B090A"/>
<path d="M146.803 70.5239C146.608 70.4998 146.423 70.4011 146.292 70.235C146.032 69.9015 146.092 69.419 146.425 69.1589L150.08 66.3088C150.414 66.0487 150.896 66.1084 151.156 66.4419C151.416 66.7755 151.356 67.2579 151.023 67.518L147.368 70.3681C147.2 70.4988 146.996 70.5478 146.802 70.5237L146.803 70.5239Z" fill="#AF4F3C"/>
<path d="M150.901 71.0304C150.706 71.0063 150.52 70.9076 150.389 70.7415C150.129 70.408 150.189 69.9255 150.522 69.6655L152.641 68.013C152.975 67.7529 153.457 67.8126 153.718 68.1461C153.978 68.4796 153.918 68.9621 153.584 69.2222L151.465 70.8747C151.298 71.0054 151.094 71.0543 150.899 71.0302L150.901 71.0304Z" fill="#AF4F3C"/>
<path d="M153.02 69.3784C152.825 69.3543 152.639 69.2556 152.508 69.0895C152.248 68.756 152.308 68.2735 152.641 68.0135L154.179 66.8144C154.513 66.5544 154.995 66.6141 155.255 66.9476C155.515 67.2811 155.456 67.7636 155.122 68.0237L153.584 69.2227C153.417 69.3534 153.213 69.4023 153.018 69.3782L153.02 69.3784Z" fill="#AF4F3C"/>
<path d="M154.996 71.5371C154.802 71.513 154.616 71.4143 154.485 71.2482C154.225 70.9147 154.285 70.4322 154.618 70.1721L158.273 67.322C158.607 67.0619 159.089 67.1216 159.349 67.4551C159.609 67.7886 159.55 68.2711 159.216 68.5312L155.561 71.3813C155.394 71.512 155.19 71.561 154.995 71.5369L154.996 71.5371Z" fill="#AF4F3C"/>
<path d="M95.884 64.2246C95.6892 64.2005 95.5036 64.1018 95.3728 63.9357C95.1127 63.6022 95.1724 63.1197 95.5059 62.8596L99.1609 60.0095C99.4944 59.7494 99.9769 59.8091 100.237 60.1426C100.497 60.4761 100.437 60.9586 100.104 61.2187L96.4488 64.0688C96.2812 64.1995 96.0773 64.2485 95.8825 64.2244L95.884 64.2246Z" fill="#AF4F3C"/>
<path d="M99.9814 64.7308C99.7866 64.7067 99.601 64.6081 99.4701 64.442C99.21 64.1084 99.2697 63.626 99.6032 63.3659L101.722 61.7134C102.056 61.4534 102.538 61.5131 102.798 61.8466C103.058 62.1801 102.999 62.6626 102.665 62.9226L100.546 64.5751C100.379 64.7058 100.175 64.7548 99.9799 64.7306L99.9814 64.7308Z" fill="#AF4F3C"/>
<path d="M102.099 63.0783C101.904 63.0542 101.719 62.9556 101.588 62.7895C101.328 62.456 101.387 61.9735 101.721 61.7134L103.258 60.5144C103.592 60.2543 104.074 60.314 104.334 60.6475C104.594 60.981 104.535 61.4635 104.201 61.7236L102.664 62.9226C102.496 63.0533 102.292 63.1023 102.097 63.0782L102.099 63.0783Z" fill="#AF4F3C"/>
<path d="M104.077 65.2377C103.882 65.2136 103.697 65.115 103.566 64.9489C103.306 64.6154 103.365 64.1329 103.699 63.8728L107.354 61.0227C107.687 60.7626 108.17 60.8223 108.43 61.1558C108.69 61.4893 108.63 61.9718 108.297 62.2319L104.642 65.082C104.474 65.2127 104.27 65.2617 104.076 65.2376L104.077 65.2377Z" fill="#AF4F3C"/>
<mask id="mask2_479_5004" style="mask-type:luminance" maskUnits="userSpaceOnUse" x="124" y="1" width="58" height="38">
<path d="M173.186 38.3386L177.679 34.9756C182.425 31.4229 183.392 24.6937 179.84 19.9474C176.648 15.6845 170.896 14.4722 166.317 16.8449C166.637 11.876 163.447 7.1962 158.457 5.81859C153.667 4.49799 148.742 6.63942 146.345 10.7299C145.78 5.84173 141.892 1.82968 136.789 1.29414C130.892 0.68199 125.615 4.96634 125.003 10.8633L124.265 17.9762C127.183 18.0251 130.164 18.2363 133.188 18.6105C150.466 20.7482 165.114 27.7049 173.186 38.3386Z" fill="white"/>
</mask>
<g mask="url(#mask2_479_5004)">
<path d="M125.49 2.65159C127.002 24.2968 163.175 40.594 183.077 24.0815L183.037 45.8965L111.023 26.673L125.49 2.65159Z" fill="#FFEDDC"/>
</g>
<path d="M48.1363 49.8705C38.9834 56.504 36.8061 68.1966 42.063 75.45C47.3199 82.7034 59.0013 83.2059 68.1542 76.5724C77.307 69.9388 80.4653 58.6813 75.2084 51.4279C69.9515 44.1745 57.2891 43.2369 48.1363 49.8705Z" fill="#946555"/>
<g filter="url(#filter0_f_479_5004)">
<path d="M39.7471 77.6597C46.6735 78.5167 52.9832 73.5964 53.8402 66.67C54.6972 59.7435 49.7769 53.4338 42.8505 52.5768C35.924 51.7199 29.6143 56.6401 28.7574 63.5666C27.9004 70.493 32.8207 76.8027 39.7471 77.6597Z" fill="#F46940"/>
</g>
<path d="M47.2461 59.2504C46.8422 59.546 46.2709 59.4824 45.9439 59.0944L40.6609 52.8426C40.3187 52.4371 40.37 51.8294 40.7744 51.4856C41.183 51.1411 41.7876 51.1947 42.1313 51.5991L47.4143 57.8509C47.7565 58.2565 47.7052 58.8642 47.3008 59.2079C47.2822 59.2215 47.2647 59.2367 47.2476 59.2492L47.2461 59.2504Z" fill="white"/>
<path d="M51.6999 55.4771C51.2961 55.7727 50.7247 55.7091 50.3977 55.3211L45.1147 49.0693C44.7725 48.6638 44.8238 48.0561 45.2282 47.7123C45.6376 47.3721 46.2414 47.4214 46.5852 47.8258L51.8682 54.0776C52.2104 54.4831 52.1591 55.0909 51.7547 55.4346C51.7361 55.4482 51.7185 55.4635 51.7015 55.476L51.6999 55.4771Z" fill="white"/>
<path d="M56.4027 51.8243C55.9988 52.1199 55.4275 52.0563 55.1005 51.6683L49.8175 45.4164C49.4753 45.0109 49.5266 44.4032 49.9309 44.0595C50.3403 43.7193 50.9442 43.7686 51.2879 44.173L56.5709 50.4248C56.9131 50.8303 56.8618 51.438 56.4574 51.7818C56.4388 51.7954 56.4213 51.8106 56.4042 51.8231L56.4027 51.8243Z" fill="white"/>
<defs>
<filter id="filter0_f_479_5004" x="0.660431" y="24.48" width="81.2767" height="81.2766" filterUnits="userSpaceOnUse" color-interpolation-filters="sRGB">
<feFlood flood-opacity="0" result="BackgroundImageFix"/>
<feBlend mode="normal" in="SourceGraphic" in2="BackgroundImageFix" result="shape"/>
<feGaussianBlur stdDeviation="14" result="effect1_foregroundBlur_479_5004"/>
</filter>
</defs>
</svg>
