<svg width="61" height="82" viewBox="0 0 61 82" fill="none" xmlns="http://www.w3.org/2000/svg">
<path fill-rule="evenodd" clip-rule="evenodd" d="M30.9102 0.0205078L0.910156 10.9631V47.8002C4.04964 54.3097 14.4449 69.44 30.9102 70.0205C47.3754 69.44 57.7707 54.3097 60.9102 47.8002V10.9631L30.9102 0.0205078Z" fill="#8D8D8D"/>
<path d="M52.2616 18.8543C50.5737 17.0991 47.8956 16.8719 45.9511 18.2057C45.8171 15.9329 44.1068 13.9884 41.7653 13.6433C39.5171 13.313 37.4028 14.5613 36.5445 16.5521C36.0136 14.3649 34.0242 12.7626 31.6785 12.806C28.9681 12.8593 26.8139 15.0998 26.8672 17.8102L26.9913 24.1158C27.0439 26.7932 29.2311 28.9278 31.8973 28.9278C31.9302 28.9278 31.9632 28.9278 31.9961 28.9271C33.5424 28.897 34.907 28.1537 35.785 27.0176C36.4898 28.3591 37.8032 29.3577 39.4168 29.5954C39.6594 29.6312 39.9 29.648 40.1377 29.648C40.1931 29.648 40.2485 29.6459 40.3039 29.6445C40.407 29.7771 40.5185 29.9054 40.637 30.0288C41.6005 31.0316 42.8873 31.5358 44.1762 31.5358C45.4651 31.5358 46.6257 31.0807 47.5773 30.1656L52.1235 25.7946C54.0779 23.916 54.1389 20.808 52.2602 18.8536L52.2616 18.8543Z" fill="white"/>
<path d="M54.5577 38.2528C54.5577 49.4147 44.0179 54.0633 31.0166 54.0633C18.0154 54.0633 7.47559 49.4147 7.47559 38.2528C7.47559 27.091 18.0154 20.866 31.0166 20.866C44.0179 20.866 54.5577 27.091 54.5577 38.2528Z" fill="white"/>
<path d="M48.0139 39.3932C48.0139 47.2766 40.4039 51.0557 31.0162 51.0557C21.6286 51.0557 14.0186 47.2766 14.0186 39.3932C14.0186 31.5097 21.6286 27.6079 31.0162 27.6079C40.4039 27.6079 48.0139 31.509 48.0139 39.3932Z" fill="#B5B5B5"/>
<mask id="mask0_610_17667" style="mask-type:luminance" maskUnits="userSpaceOnUse" x="14" y="27" width="40" height="40">
<path d="M48.0139 39.3932C48.0139 47.2766 40.4039 51.0557 31.0162 51.0557C21.6286 51.0557 14.0186 47.2766 14.0186 39.3932C14.0186 31.5097 21.6286 27.6079 31.0162 27.6079C40.4039 27.6079 48.0139 31.509 48.0139 39.3932Z" fill="white"/>
</mask>
<g mask="url(#mask0_610_17667)">
<path d="M19.498 49.8589C22.6893 49.8589 25.2764 47.2718 25.2764 44.0806C25.2764 40.8893 22.6893 38.3022 19.498 38.3022C16.3068 38.3022 13.7197 40.8893 13.7197 44.0806C13.7197 47.2718 16.3068 49.8589 19.498 49.8589Z" fill="#8D8D8D"/>
<path d="M42.5342 49.8589C45.7255 49.8589 48.3125 47.2718 48.3125 44.0806C48.3125 40.8893 45.7255 38.3022 42.5342 38.3022C39.3429 38.3022 36.7559 40.8893 36.7559 44.0806C36.7559 47.2718 39.3429 49.8589 42.5342 49.8589Z" fill="#8D8D8D"/>
</g>
<path d="M26.6937 38.3199C25.6657 39.348 24.3634 39.7133 23.4048 38.7547C22.4462 37.7961 22.8116 36.4946 23.8396 35.4658C24.8676 34.4378 26.1699 34.0724 27.1285 35.031C28.0871 35.9897 27.7217 37.2912 26.6937 38.3199Z" fill="#434343"/>
<path d="M27.2132 41.18C26.1852 42.2081 24.883 42.5734 23.9244 41.6148C22.9657 40.6562 23.3311 39.3547 24.3591 38.3259C25.3872 37.2979 26.6894 36.9325 27.648 37.8912C28.6066 38.8498 28.2413 40.1513 27.2132 41.18Z" fill="#434343"/>
<path d="M25.632 37.1844C25.1496 37.6668 24.5802 37.8807 24.2169 37.5175C23.8537 37.1542 24.0668 36.5848 24.55 36.1023C25.0325 35.6199 25.6019 35.406 25.9651 35.7692C26.3284 36.1325 26.1152 36.7019 25.632 37.1844Z" fill="white"/>
<path opacity="0.2" d="M26.2157 40.5328C25.7781 40.9704 25.2451 41.1478 24.8819 40.7846C24.5186 40.4213 24.6961 39.8884 25.1336 39.4508C25.5712 39.0132 26.1042 38.8358 26.4674 39.199C26.8307 39.5623 26.6533 40.0952 26.2157 40.5328Z" fill="#D8D8D8"/>
<path d="M26.422 38.2504C26.2144 38.458 25.9564 38.5358 25.7719 38.3514C25.5875 38.167 25.6653 37.9082 25.8729 37.7013C26.0805 37.4945 26.3385 37.4159 26.523 37.6004C26.7074 37.7848 26.6296 38.0436 26.422 38.2504Z" fill="#8D8D8D"/>
<path d="M37.6722 38.3196C36.6442 39.3477 35.342 39.713 34.3833 38.7544C33.4247 37.7958 33.7901 36.4943 34.8181 35.4655C35.8462 34.4368 37.1484 34.0722 38.107 35.0308C39.0656 35.9894 38.7003 37.2909 37.6722 38.3196Z" fill="#434343"/>
<path d="M38.1927 41.18C37.1647 42.2081 35.8625 42.5734 34.9039 41.6148C33.9452 40.6562 34.3106 39.3547 35.3386 38.3259C36.3667 37.2979 37.6689 36.9325 38.6275 37.8912C39.5861 38.8498 39.2208 40.1513 38.1927 41.18Z" fill="#434343"/>
<path d="M36.6115 37.1844C36.1291 37.6668 35.5596 37.8807 35.1964 37.5175C34.8331 37.1542 35.0463 36.5848 35.5295 36.1023C36.012 35.6199 36.5814 35.406 36.9446 35.7692C37.3079 36.1325 37.0947 36.7019 36.6115 37.1844Z" fill="white"/>
<path opacity="0.2" d="M37.1952 40.5328C36.7576 40.9704 36.2246 41.1478 35.8614 40.7846C35.4981 40.4213 35.6755 39.8884 36.1131 39.4508C36.5507 39.0132 37.0837 38.8358 37.4469 39.199C37.8102 39.5623 37.6327 40.0952 37.1952 40.5328Z" fill="#D8D8D8"/>
<path d="M37.4015 38.2501C37.1939 38.4577 36.9359 38.5355 36.7514 38.3511C36.567 38.1667 36.6448 37.9079 36.8524 37.701C37.06 37.4935 37.318 37.4156 37.5025 37.6001C37.6869 37.7845 37.6091 38.0433 37.4015 38.2501Z" fill="#8D8D8D"/>
<path d="M32.0636 41.6661C32.0594 41.6661 32.0559 41.6661 32.0517 41.6661C31.6905 41.6626 31.3434 41.4873 31.0159 41.1436C30.6884 41.4873 30.3413 41.6626 29.9802 41.6661C29.9767 41.6661 29.9725 41.6661 29.9683 41.6661C29.408 41.6661 29.0686 41.2488 29.0314 41.2012C28.9129 41.0483 28.9409 40.8281 29.0938 40.7089C29.246 40.5911 29.4648 40.6177 29.5833 40.7685C29.591 40.7776 29.7502 40.9648 29.969 40.9648C29.9718 40.9648 29.9746 40.9648 29.9774 40.9648C30.1934 40.9599 30.4409 40.7769 30.6941 40.4361C30.76 40.347 30.8645 40.2944 30.9753 40.2944H31.0538C31.1646 40.2944 31.2691 40.347 31.335 40.4361C31.5882 40.7769 31.8357 40.9599 32.0517 40.9648C32.0545 40.9648 32.0573 40.9648 32.0601 40.9648C32.2831 40.9648 32.4444 40.7706 32.4458 40.7685C32.5643 40.6156 32.7838 40.589 32.9367 40.7075C33.0895 40.826 33.1162 41.0476 32.9977 41.2012C32.9605 41.2488 32.6211 41.6661 32.0608 41.6661H32.0636Z" fill="#434343"/>
<path d="M40.1096 43.6593C40.0198 43.6593 39.9301 43.6249 39.8613 43.5569C39.7246 43.4201 39.7246 43.1978 39.8613 43.0611L41.3599 41.5625C41.4967 41.4258 41.719 41.4258 41.8557 41.5625C41.9925 41.6993 41.9925 41.9216 41.8557 42.0583L40.3571 43.5569C40.2884 43.6256 40.1987 43.6593 40.1089 43.6593H40.1096Z" fill="#747474"/>
<path d="M41.9973 43.6594C41.9075 43.6594 41.8178 43.6251 41.749 43.557C41.6123 43.4203 41.6123 43.198 41.749 43.0613L42.6179 42.1924C42.7546 42.0557 42.9769 42.0557 43.1137 42.1924C43.2504 42.3291 43.2504 42.5514 43.1137 42.6882L42.2448 43.557C42.1761 43.6258 42.0863 43.6594 41.9966 43.6594H41.9973Z" fill="#747474"/>
<path d="M42.8664 42.7906C42.7767 42.7906 42.6869 42.7563 42.6182 42.6882C42.4814 42.5515 42.4814 42.3292 42.6182 42.1925L43.2486 41.562C43.3854 41.4253 43.6077 41.4253 43.7444 41.562C43.8811 41.6988 43.8811 41.9211 43.7444 42.0578L43.114 42.6882C43.0452 42.757 42.9555 42.7906 42.8657 42.7906H42.8664Z" fill="#747474"/>
<path d="M43.885 43.6593C43.7952 43.6593 43.7055 43.6249 43.6367 43.5569C43.5 43.4201 43.5 43.1978 43.6367 43.0611L45.1353 41.5625C45.2721 41.4258 45.4944 41.4258 45.6311 41.5625C45.7678 41.6993 45.7678 41.9216 45.6311 42.0583L44.1325 43.5569C44.0638 43.6256 43.974 43.6593 43.8843 43.6593H43.885Z" fill="#747474"/>
<path d="M16.6496 43.6595C16.5599 43.6595 16.4701 43.6251 16.4014 43.5571C16.2646 43.4204 16.2646 43.1981 16.4014 43.0613L17.9 41.5628C18.0367 41.426 18.259 41.426 18.3957 41.5628C18.5325 41.6995 18.5325 41.9218 18.3957 42.0585L16.8972 43.5571C16.8284 43.6258 16.7387 43.6595 16.6489 43.6595H16.6496Z" fill="#747474"/>
<path d="M18.5373 43.6597C18.4476 43.6597 18.3578 43.6253 18.2891 43.5573C18.1523 43.4205 18.1523 43.1982 18.2891 43.0615L19.1579 42.1926C19.2947 42.0559 19.517 42.0559 19.6537 42.1926C19.7905 42.3294 19.7905 42.5517 19.6537 42.6884L18.7849 43.5573C18.7161 43.626 18.6264 43.6597 18.5366 43.6597H18.5373Z" fill="#747474"/>
<path d="M19.4055 42.7909C19.3157 42.7909 19.226 42.7565 19.1572 42.6885C19.0205 42.5517 19.0205 42.3294 19.1572 42.1927L19.7877 41.5623C19.9244 41.4255 20.1467 41.4255 20.2835 41.5623C20.4202 41.699 20.4202 41.9213 20.2835 42.0581L19.653 42.6885C19.5843 42.7572 19.4946 42.7909 19.4048 42.7909H19.4055Z" fill="#747474"/>
<path d="M20.424 43.6595C20.3343 43.6595 20.2445 43.6251 20.1758 43.5571C20.0391 43.4204 20.0391 43.1981 20.1758 43.0613L21.6744 41.5628C21.8111 41.426 22.0334 41.426 22.1702 41.5628C22.3069 41.6995 22.3069 41.9218 22.1702 42.0585L20.6716 43.5571C20.6029 43.6258 20.5131 43.6595 20.4233 43.6595H20.424Z" fill="#747474"/>
<mask id="mask1_610_17667" style="mask-type:luminance" maskUnits="userSpaceOnUse" x="26" y="12" width="28" height="16">
<path d="M50.275 27.573L52.1249 25.7946C54.0793 23.916 54.1403 20.808 52.2616 18.8536C50.5737 17.0984 47.8956 16.8712 45.9511 18.205C45.8171 15.9322 44.1068 13.9877 41.7653 13.6426C39.5171 13.3123 37.4028 14.5606 36.5445 16.5514C36.0136 14.3649 34.0242 12.7626 31.6785 12.806C28.9681 12.8593 26.8139 15.0998 26.8672 17.8102L26.9317 21.0794C28.2585 20.9378 29.6231 20.8662 31.0165 20.8662C38.9771 20.8662 46.0149 23.2007 50.275 27.573Z" fill="white"/>
</mask>
<g mask="url(#mask1_610_17667)">
<path d="M26.6278 14.0562C28.5288 23.7937 45.8589 29.1583 53.9633 20.5476L55.1701 30.4493L21.4111 25.7692L26.6278 14.0562Z" fill="#484E58"/>
</g>
</svg>
