<svg width="13" height="12" viewBox="0 0 13 12" fill="none" xmlns="http://www.w3.org/2000/svg">
<path fill-rule="evenodd" clip-rule="evenodd" d="M1.8035 1.91051C2.46931 1.2447 3.41394 0.893768 4.33721 1.0324C5.16914 1.15732 5.959 1.67566 6.50002 2.66799C7.04103 1.67566 7.83089 1.15732 8.66283 1.0324C9.5861 0.893768 10.5307 1.2447 11.1965 1.91051C11.898 2.61199 12.1093 3.5858 12.0474 4.50045C11.9855 5.41353 11.6501 6.30151 11.213 6.86388C10.3884 7.92498 10.0945 8.23806 9.34838 8.96557C8.97374 9.33084 8.4879 9.75737 8.09779 10.091C7.9023 10.2581 7.73005 10.4027 7.60664 10.5054C7.54492 10.5568 7.4954 10.5978 7.46126 10.6259L7.42198 10.6582L7.41567 10.6634C7.16177 10.9134 6.83057 11.0385 6.50002 11.0385C6.16946 11.0385 5.83826 10.9134 5.58436 10.6634L5.57805 10.6582L5.53877 10.6259C5.50463 10.5978 5.45511 10.5568 5.39339 10.5054C5.26998 10.4027 5.09773 10.2581 4.90225 10.091C4.51213 9.75737 4.02629 9.33084 3.65166 8.96557C2.90551 8.23806 2.61163 7.92498 1.787 6.86388C1.34996 6.30151 1.01449 5.41353 0.952673 4.50045C0.890754 3.5858 1.10203 2.61199 1.8035 1.91051Z" fill="#B5B5B5" stroke="#B5B5B5" stroke-width="1.27646" stroke-linecap="round" stroke-linejoin="round"/>
</svg>
