<svg width="80" height="60" viewBox="0 0 80 60" fill="none" xmlns="http://www.w3.org/2000/svg">
<path d="M2.73241 18.5161C1.94726 18.5161 1.20665 18.0388 0.908214 17.2615C0.522282 16.2545 1.0254 15.1248 2.03242 14.7389L40.392 0.03125L78.5274 14.7404C79.5336 15.1287 80.0352 16.2591 79.6469 17.2654C79.2586 18.2716 78.1282 18.7732 77.122 18.3849L40.3881 4.21635L3.43162 18.3857C3.20193 18.474 2.96522 18.5154 2.73319 18.5154L2.73241 18.5161Z" fill="#F46940"/>
<path d="M72.1572 33.8034C73.0314 32.9276 74.8532 31.3425 76.9641 30.8956L75.9454 26.0808C74.5384 26.3785 73.2619 26.9417 72.158 27.591V19.7708H67.2362V42.0603H72.158V33.8041L72.1572 33.8034Z" fill="#3B090A"/>
<path d="M36.4358 19.7708H31.514V45.9024H36.4358V19.7708Z" fill="#3B090A"/>
<path d="M13.6713 39.6043C14.3689 40.5691 15.3838 41.4699 17.0314 41.6667C19.74 41.9902 21.1595 40.9605 22.6555 38.4754C24.0907 39.648 26.1188 40.9363 28.5305 41.4472L29.5492 36.6324C27.1133 36.1168 25.0664 34.0903 24.4086 33.3762C24.8266 31.1903 25.1727 28.47 25.7188 25.1115H29.725V20.1897H7.43467V25.1115H13.4299C13.301 26.431 13.0408 28.4591 12.5322 30.5278C12.4698 30.7809 12.4057 31.0278 12.3393 31.2684C11.1159 30.6786 9.91666 30.6216 8.412 30.8645C6.25031 31.2138 4.2269 32.5708 3.25191 34.9559C2.34724 37.1668 2.91676 39.0058 4.2269 40.4667C4.80111 41.1074 5.95031 41.9894 7.91591 41.9894C8.58699 41.9894 9.35417 41.8863 10.226 41.6355C11.6448 41.2277 12.5838 40.8433 13.6713 39.605V39.6043ZM20.6306 25.1115C20.0446 30.9263 19.3517 33.434 18.6939 35.1496C18.4259 35.8481 18.2173 36.3379 17.5033 36.6848C17.3752 36.7473 16.9814 36.7324 16.7384 36.6926C16.5291 36.6582 16.0635 36.2567 16.1799 35.5692C16.2189 35.3371 16.3588 34.8348 16.4517 34.5871C16.7783 33.6786 17.0712 32.6911 17.3306 31.6263C17.9619 29.0325 18.2486 26.5584 18.3736 25.1115H20.6306ZM9.02683 37.7238C7.20889 38.4324 6.43468 37.0066 7.33701 35.7528C7.81904 35.0801 8.8323 34.4668 9.62135 34.452C10.226 34.4395 11.0018 34.4934 11.1651 35.1559C11.1651 35.1559 11.3073 36.7441 9.02605 37.7238H9.02683Z" fill="#3B090A"/>
<path d="M50.0114 39.9797C51.409 38.8079 52.0887 36.904 52.0887 34.1595V20.1902H47.1669V25.4104C46.2341 25.6424 45.4193 26.0784 44.7146 26.6167V20.1902H39.7928V34.0986C39.7928 36.5626 40.374 38.3595 41.5701 39.5907C42.6123 40.6641 44.0443 41.2086 45.8255 41.2086C46.7763 41.2086 48.5466 41.2086 50.0114 39.9805V39.9797ZM45.063 36.1118C45.0536 36.0978 45.0435 36.0814 45.0318 36.0603C45.0294 36.0556 45.0271 36.0517 45.0247 36.047C45.013 36.0251 45.0005 36.0001 44.9865 35.9704C44.9763 35.9486 44.9669 35.9259 44.9583 35.9032C44.956 35.897 44.9529 35.8907 44.9505 35.8837C44.9427 35.8634 44.9349 35.8431 44.9286 35.8228C44.8255 35.5267 44.7138 34.9993 44.7138 34.097V33.5744C44.8966 33.0228 45.4591 31.8517 47.1661 31.0752V34.1587C47.1661 34.4814 47.1364 34.8564 47.1114 35.1204C47.0786 35.4579 47.0224 35.8353 46.8458 36.1251C46.6591 36.4314 46.3294 36.6821 45.9286 36.6571C45.5575 36.6337 45.2521 36.4196 45.063 36.1126V36.1118Z" fill="#3B090A"/>
<path d="M59.2308 41.2074C60.1816 41.2074 61.9519 41.2074 63.4167 39.9793C64.8143 38.8074 65.494 36.9035 65.494 34.159V20.1897H60.5722V25.4099C59.6394 25.642 58.8246 26.0779 58.1199 26.6162V20.1897H53.1981V34.0981C53.1981 36.5621 53.7793 38.359 54.9754 39.5902C56.0176 40.6636 57.4496 41.2081 59.2308 41.2081V41.2074ZM60.5722 31.0755V34.159C60.5722 34.4817 60.5425 34.8567 60.5175 35.1207C60.4847 35.4582 60.4284 35.8356 60.2519 36.1254C60.0652 36.4317 59.7355 36.6824 59.3347 36.6574C58.9636 36.634 58.6582 36.4199 58.4691 36.1129C58.4597 36.0988 58.4496 36.0824 58.4378 36.0613C58.4355 36.0567 58.4332 36.0528 58.4308 36.0481C58.4191 36.0262 58.4066 36.0012 58.3925 35.9715C58.3824 35.9496 58.373 35.927 58.3644 35.9043C58.3621 35.8981 58.3589 35.8918 58.3566 35.8848C58.3488 35.8645 58.341 35.8442 58.3347 35.8238C58.2316 35.5278 58.1199 35.0004 58.1199 34.0981V33.5754C58.3027 33.0239 58.8652 31.8528 60.5722 31.0763V31.0755Z" fill="#3B090A"/>
<path d="M67.5557 44.1266C66.1901 43.4298 64.651 43.0806 62.937 43.0806H52.4801C50.7661 43.0806 49.2263 43.429 47.8614 44.1266C46.4958 44.8235 45.4279 45.7602 44.6591 46.9368C43.8888 48.1133 43.5045 49.3984 43.5045 50.793V51.1414C43.5045 53.2039 44.3029 54.9101 45.9005 56.2608C47.4974 57.6116 49.5458 58.4757 52.0442 58.853C54.1067 59.1428 55.9941 59.2889 57.7082 59.2889C59.4222 59.2889 61.3386 59.1428 63.3722 58.853C65.8698 58.4749 67.9182 57.6108 69.5158 56.2608C71.1127 54.9101 71.9119 53.2031 71.9119 51.1414V50.793C71.9119 49.3984 71.5267 48.1133 70.7572 46.9368C69.9869 45.7602 68.9197 44.8235 67.5549 44.1266H67.5557ZM66.6846 51.1414C66.6846 51.8679 66.3362 52.4921 65.6385 53.0148C64.9409 53.5374 63.8956 53.9148 62.5011 54.1476C60.6417 54.4093 59.0441 54.5398 57.7082 54.5398C56.3723 54.5398 54.8324 54.4093 52.9153 54.1476C51.5208 53.9148 50.4755 53.5374 49.7778 53.0148C49.0802 52.4921 48.7325 51.8679 48.7325 51.1414V50.793C48.7325 49.9805 49.0739 49.2898 49.7567 48.7235C50.4387 48.1571 51.3473 47.8735 52.4801 47.8735H62.937C64.0698 47.8735 64.9776 48.1563 65.6604 48.7235C66.3424 49.2898 66.6846 49.9805 66.6846 50.793V51.1414Z" fill="#3B090A"/>
<path d="M31.514 52.6913C29.5211 52.9859 28.025 53.1296 26.5938 53.1296C25.1625 53.1296 23.5118 52.9827 21.4571 52.6882C19.9626 52.4257 18.8423 52.0015 18.0947 51.4124C17.3478 50.8234 16.9736 50.1211 16.9736 49.3031V48.9109C16.9736 47.9953 17.6884 46.0235 17.9697 45.8852L13.0736 43.8938C12.908 44.111 12.7525 44.3352 12.6072 44.5688C11.7822 45.8938 11.3698 47.3406 11.3698 48.9109V49.3031C11.3698 51.6249 12.226 53.5468 13.9385 55.0679C15.6502 56.5889 17.8447 57.5616 20.5227 57.9873C22.7329 58.3139 24.7563 58.478 26.5938 58.478C28.4312 58.478 30.4851 58.3139 32.6648 57.9873C35.3421 57.5616 37.8975 56.1741 38.5506 55.353L36.0116 50.8328C34.8069 51.714 33.0085 52.4304 31.5148 52.6921L31.514 52.6913Z" fill="#3B090A"/>
</svg>
