<svg width="45" height="44" viewBox="0 0 45 44" fill="none" xmlns="http://www.w3.org/2000/svg">
<rect x="1.77832" y="1" width="42" height="42" rx="3" fill="#EEEEEE" stroke="#E8E8E8" stroke-width="2"/>
<path fill-rule="evenodd" clip-rule="evenodd" d="M35.9783 16.8544L35.374 17.4758C36.7414 19.3745 37.5283 21.7311 37.5283 24.5083C37.5283 32.6212 30.8125 36 22.5283 36C14.2441 36 7.52832 32.6212 7.52832 24.5083C7.52832 17.2749 12.8669 12.894 19.8958 12.0291L19.8845 11.4117C19.8505 9.56418 21.2232 8.03692 22.9501 8.00059C23.1902 7.99583 23.4245 8.02002 23.6499 8.07015C24.8281 8.33213 25.7668 9.30263 26.0507 10.5537C26.5976 9.19658 27.9448 8.34572 29.3773 8.57086C30.8693 8.80604 31.9591 10.1316 32.0444 11.6808C33.2835 10.7716 34.9899 10.9265 36.0654 12.123C37.2625 13.4552 37.2236 15.5738 35.9783 16.8544Z" fill="#F46940"/>
<path d="M27.6358 22.0366C27.6358 23.1235 27.1405 24.0051 26.127 24.0051C25.1135 24.0051 24.6186 23.1239 24.6182 22.0366C24.6182 20.9497 25.1135 20.0682 26.127 20.0682C27.1405 20.0682 27.6354 20.9493 27.6358 22.0366Z" fill="white"/>
<path d="M20.9385 22.0366C20.9385 23.1235 20.4432 24.0051 19.4297 24.0051C18.4162 24.0051 17.9213 23.1239 17.921 22.0366C17.921 20.9497 18.4162 20.0682 19.4297 20.0682C20.4432 20.0682 20.9381 20.9493 20.9385 22.0366Z" fill="white"/>
<path d="M24.8932 28.3825C24.8847 28.3825 24.8776 28.3825 24.8691 28.3825C24.1409 28.3754 23.441 28.0219 22.7806 27.3291C22.1203 28.0219 21.4204 28.3754 20.6922 28.3825C20.6851 28.3825 20.6766 28.3825 20.6681 28.3825C19.5383 28.3825 18.8539 27.5412 18.779 27.445C18.54 27.1368 18.5966 26.6928 18.9049 26.4524C19.2117 26.2148 19.6529 26.2686 19.8918 26.5726C19.9074 26.591 20.2284 26.9685 20.6695 26.9685C20.6752 26.9685 20.6808 26.9685 20.6865 26.9685C21.122 26.9586 21.6212 26.5895 22.1316 25.9023C22.2645 25.7227 22.4752 25.6167 22.6986 25.6167H22.857C23.0804 25.6167 23.2911 25.7227 23.424 25.9023C23.9345 26.5895 24.4336 26.9586 24.8691 26.9685C24.8748 26.9685 24.8804 26.9685 24.8861 26.9685C25.3358 26.9685 25.661 26.5768 25.6638 26.5726C25.9028 26.2643 26.3454 26.2106 26.6536 26.4496C26.9619 26.6885 27.0156 27.1353 26.7766 27.445C26.7017 27.5412 26.0173 28.3825 24.8875 28.3825H24.8932Z" fill="white"/>
</svg>
