<svg width="17" height="18" viewBox="0 0 17 18" fill="none" xmlns="http://www.w3.org/2000/svg">
<path d="M5.77832 2C5.22604 2 4.77832 2.44772 4.77832 3C4.77832 3.55228 5.22604 4 5.77832 4C6.33061 4 6.77832 3.55228 6.77832 3C6.77832 2.44772 6.33061 2 5.77832 2ZM2.94903 2C3.36086 0.834808 4.4721 0 5.77832 0C7.08454 0 8.19578 0.834808 8.60761 2H15.7783C16.3306 2 16.7783 2.44772 16.7783 3C16.7783 3.55228 16.3306 4 15.7783 4H8.60761C8.19578 5.16519 7.08454 6 5.77832 6C4.4721 6 3.36086 5.16519 2.94903 4H1.77832C1.22604 4 0.77832 3.55228 0.77832 3C0.77832 2.44772 1.22604 2 1.77832 2H2.94903ZM11.7783 8C11.226 8 10.7783 8.44772 10.7783 9C10.7783 9.55229 11.226 10 11.7783 10C12.3306 10 12.7783 9.55229 12.7783 9C12.7783 8.44772 12.3306 8 11.7783 8ZM8.94903 8C9.36086 6.83481 10.4721 6 11.7783 6C13.0845 6 14.1958 6.83481 14.6076 8H15.7783C16.3306 8 16.7783 8.44772 16.7783 9C16.7783 9.55229 16.3306 10 15.7783 10H14.6076C14.1958 11.1652 13.0845 12 11.7783 12C10.4721 12 9.36086 11.1652 8.94903 10H1.77832C1.22604 10 0.77832 9.55229 0.77832 9C0.77832 8.44772 1.22604 8 1.77832 8H8.94903ZM5.77832 14C5.22604 14 4.77832 14.4477 4.77832 15C4.77832 15.5523 5.22604 16 5.77832 16C6.33061 16 6.77832 15.5523 6.77832 15C6.77832 14.4477 6.33061 14 5.77832 14ZM2.94903 14C3.36086 12.8348 4.4721 12 5.77832 12C7.08454 12 8.19578 12.8348 8.60761 14H15.7783C16.3306 14 16.7783 14.4477 16.7783 15C16.7783 15.5523 16.3306 16 15.7783 16H8.60761C8.19578 17.1652 7.08454 18 5.77832 18C4.4721 18 3.36086 17.1652 2.94903 16H1.77832C1.22604 16 0.77832 15.5523 0.77832 15C0.77832 14.4477 1.22604 14 1.77832 14H2.94903Z" fill="#3F3F3F"/>
</svg>
