<svg width="31" height="31" viewBox="0 0 31 31" fill="none" xmlns="http://www.w3.org/2000/svg">
<path fill-rule="evenodd" clip-rule="evenodd" d="M4.19739 5.2906C5.87462 3.62613 8.25422 2.74884 10.58 3.0954C12.6757 3.40768 14.6655 4.70349 16.0283 7.18422C17.3912 4.70349 19.3809 3.40768 21.4766 3.0954C23.8024 2.74884 26.182 3.62613 27.8592 5.2906C29.6263 7.04422 30.1585 9.47866 30.0026 11.7652C29.8468 14.0478 29.0018 16.2677 27.9008 17.6735C25.8235 20.3262 25.0832 21.1089 23.2036 22.9275C22.2598 23.8407 21.036 24.907 20.0532 25.741C19.5608 26.1589 19.1269 26.5201 18.816 26.777C18.6605 26.9055 18.5358 27.0079 18.4498 27.0782L18.3508 27.1591L18.3349 27.172C17.6953 27.797 16.861 28.1096 16.0283 28.1096C15.1956 28.1096 14.3613 27.797 13.7217 27.172L13.7058 27.1591L13.6069 27.0782C13.5209 27.0079 13.3961 26.9055 13.2406 26.777C12.9298 26.5201 12.4958 26.1589 12.0034 25.741C11.0207 24.907 9.7968 23.8407 8.85306 22.9275C6.97344 21.1089 6.23313 20.3262 4.15583 17.6735C3.05488 16.2677 2.2098 14.0478 2.05409 11.7652C1.89811 9.47866 2.43033 7.04422 4.19739 5.2906Z" fill="#F46940"/>
<path d="M23.3022 6.21875C25.3523 6.38782 27.3463 9.84216 26.5038 13.3248" stroke="white" stroke-width="2" stroke-linecap="round"/>
</svg>
