<svg width="31" height="31" viewBox="0 0 31 31" fill="none" xmlns="http://www.w3.org/2000/svg">
<path fill-rule="evenodd" clip-rule="evenodd" d="M28.9783 10.8749L28.374 11.4963C29.7414 13.395 30.5283 15.7517 30.5283 18.5288C30.5283 26.6417 23.8125 30.0205 15.5283 30.0205C7.24414 30.0205 0.52832 26.6417 0.52832 18.5288C0.52832 11.2954 5.8669 6.91447 12.8958 6.04958L12.8845 5.43221C12.8505 3.58468 14.2232 2.05743 15.9501 2.0211C16.1902 2.01634 16.4245 2.04052 16.6499 2.09066C17.8281 2.35264 18.7668 3.32314 19.0507 4.57417C19.5976 3.21709 20.9448 2.36622 22.3773 2.59137C23.8693 2.82655 24.9591 4.15209 25.0444 5.70133C26.2835 4.79215 27.9899 4.94703 29.0654 6.1435C30.2625 7.47573 30.2236 9.59429 28.9783 10.8749Z" fill="#F46940"/>
<path d="M20.6358 16.0571C20.6358 17.144 20.1405 18.0256 19.127 18.0256C18.1135 18.0256 17.6186 17.1444 17.6182 16.0571C17.6182 14.9702 18.1135 14.0887 19.127 14.0887C20.1405 14.0887 20.6354 14.9698 20.6358 16.0571Z" fill="white"/>
<path d="M13.9385 16.0571C13.9385 17.144 13.4432 18.0256 12.4297 18.0256C11.4162 18.0256 10.9213 17.1444 10.921 16.0571C10.921 14.9702 11.4162 14.0887 12.4297 14.0887C13.4432 14.0887 13.9381 14.9698 13.9385 16.0571Z" fill="white"/>
<path d="M17.8932 22.403C17.8847 22.403 17.8776 22.403 17.8691 22.403C17.1409 22.3959 16.441 22.0424 15.7806 21.3496C15.1203 22.0424 14.4204 22.3959 13.6922 22.403C13.6851 22.403 13.6766 22.403 13.6681 22.403C12.5383 22.403 11.8539 21.5617 11.779 21.4655C11.54 21.1573 11.5966 20.7133 11.9049 20.4729C12.2117 20.2353 12.6529 20.2891 12.8918 20.5931C12.9074 20.6115 13.2284 20.989 13.6695 20.989C13.6752 20.989 13.6808 20.989 13.6865 20.989C14.122 20.9791 14.6212 20.61 15.1316 19.9228C15.2645 19.7433 15.4752 19.6372 15.6986 19.6372H15.857C16.0804 19.6372 16.2911 19.7433 16.424 19.9228C16.9345 20.61 17.4336 20.9791 17.8691 20.989C17.8748 20.989 17.8804 20.989 17.8861 20.989C18.3358 20.989 18.661 20.5973 18.6638 20.5931C18.9028 20.2848 19.3454 20.2311 19.6536 20.4701C19.9619 20.709 20.0156 21.1559 19.7766 21.4655C19.7017 21.5617 19.0173 22.403 17.8875 22.403H17.8932Z" fill="white"/>
</svg>
