<svg width="19" height="19" viewBox="0 0 19 19" fill="none" xmlns="http://www.w3.org/2000/svg">
<path d="M9.78463 1.89551C10.0687 1.89551 10.3284 2.05601 10.4554 2.3101L12.3896 6.17846L16.6426 6.79707C16.9251 6.83816 17.1597 7.03603 17.2479 7.3075C17.3361 7.57898 17.2626 7.87699 17.0582 8.07626L13.9629 11.0942L14.6592 15.3494C14.7052 15.6306 14.5878 15.9136 14.3564 16.0798C14.1249 16.246 13.8192 16.2666 13.5675 16.133L9.78463 14.1258L6.00179 16.133C5.75007 16.2666 5.4444 16.246 5.2129 16.0798C4.98141 15.9136 4.86408 15.6306 4.9101 15.3494L5.6064 11.0942L2.51105 8.07626C2.30667 7.87699 2.23313 7.57898 2.32133 7.3075C2.40954 7.03603 2.6442 6.83816 2.92667 6.79707L7.17963 6.17846L9.11381 2.3101C9.24085 2.05601 9.50055 1.89551 9.78463 1.89551Z" fill="#E8E8E8"/>
</svg>
